<svg xmlns="http://www.w3.org/2000/svg" xmlns:xlink="http://www.w3.org/1999/xlink" width="250" zoomAndPan="magnify" viewBox="0 0 187.5 74.999997" height="100" preserveAspectRatio="xMidYMid meet" version="1.2"><defs><clipPath id="fd0aec5d39"><path d="M 0 0.101562 L 187 0.101562 L 187 74.898438 L 0 74.898438 Z M 0 0.101562 "/></clipPath><clipPath id="7f68a94a21"><path d="M 82.121094 26.472656 L 107.707031 26.472656 L 107.707031 54 L 82.121094 54 Z M 82.121094 26.472656 "/></clipPath><filter x="0%" y="0%" width="100%" filterUnits="objectBoundingBox" id="d75effd108" height="100%"><feColorMatrix values="0 0 0 0 1 0 0 0 0 1 0 0 0 0 1 0 0 0 1 0" type="matrix" in="SourceGraphic"/></filter><clipPath id="64cb2243d3"><path d="M 28 0.28125 L 29 0.28125 L 29 21 L 28 21 Z M 28 0.28125 "/></clipPath><clipPath id="b47151702d"><path d="M 28 0.28125 L 30 0.28125 L 30 2 L 28 2 Z M 28 0.28125 "/></clipPath><clipPath id="1c2c230db2"><path d="M 0.484375 16 L 2 16 L 2 18 L 0.484375 18 Z M 0.484375 16 "/></clipPath><clipPath id="7594da9710"><path d="M 0.484375 31 L 2 31 L 2 32 L 0.484375 32 Z M 0.484375 31 "/></clipPath><clipPath id="2bd883715a"><path d="M 0.484375 30 L 2 30 L 2 33 L 0.484375 33 Z M 0.484375 30 "/></clipPath><clipPath id="26e5d8f91d"><rect x="0" width="47" y="0" height="46"/></clipPath></defs><g id="59df3a21e4"><g clip-rule="nonzero" clip-path="url(#fd0aec5d39)"><path style=" stroke:none;fill-rule:nonzero;fill:#ffffff;fill-opacity:1;" d="M 0 0.101562 L 187 0.101562 L 187 74.898438 L 0 74.898438 Z M 0 0.101562 "/><path style=" stroke:none;fill-rule:nonzero;fill:#ffffff;fill-opacity:1;" d="M 0 0.101562 L 187 0.101562 L 187 74.898438 L 0 74.898438 Z M 0 0.101562 "/></g><g clip-rule="nonzero" clip-path="url(#7f68a94a21)"><path style=" stroke:none;fill-rule:nonzero;fill:#1e1e1e;fill-opacity:1;" d="M 82.128906 50.667969 C 82.128906 50.832031 82.140625 51 82.152344 51.265625 C 83.714844 50.082031 85.207031 48.949219 86.824219 47.722656 L 86.824219 53.5625 C 89.125 51.8125 91.335938 50.125 93.546875 48.433594 C 93.648438 48.355469 93.773438 48.222656 93.773438 48.113281 C 93.792969 47.21875 93.785156 46.320312 93.785156 45.296875 C 92.1875 46.511719 90.691406 47.644531 89.121094 48.839844 C 89.121094 47.960938 89.140625 47.199219 89.113281 46.4375 C 89.101562 46.082031 89.222656 45.867188 89.5 45.660156 C 90.046875 45.25 90.589844 44.839844 94.976562 41.804688 L 94.976562 41.835938 C 99.210938 44.808594 99.765625 45.238281 100.320312 45.664062 C 100.476562 45.785156 100.6875 45.960938 100.695312 46.117188 C 100.730469 46.992188 100.710938 47.867188 100.710938 48.835938 C 99.125 47.632812 97.632812 46.5 96.046875 45.296875 C 96.046875 46.230469 96.0625 47.011719 96.039062 47.792969 C 96.027344 48.125 96.136719 48.339844 96.402344 48.535156 C 97.722656 49.527344 99.03125 50.535156 100.347656 51.539062 C 101.214844 52.195312 102.082031 52.851562 103.054688 53.582031 L 103.054688 47.75 C 104.644531 48.957031 106.136719 50.09375 107.667969 51.253906 C 107.695312 51.105469 107.707031 51.070312 107.707031 51.039062 C 107.707031 44.640625 107.714844 38.246094 107.699219 31.847656 L 105.410156 30.15625 L 105.410156 46.570312 C 104.683594 46.015625 104.09375 45.535156 103.46875 45.105469 C 103.140625 44.878906 103.039062 44.628906 103.039062 44.238281 C 103.050781 38.964844 103.046875 33.691406 103.054688 28.414062 L 100.710938 26.679688 L 100.710938 27.839844 C 100.722656 27.9375 100.726562 28.039062 100.726562 28.140625 C 100.710938 32.894531 100.71875 37.644531 100.71875 42.394531 C 100.71875 42.550781 100.71875 42.707031 100.71875 42.988281 C 99.96875 42.421875 99.292969 41.933594 94.980469 38.859375 L 94.980469 38.84375 C 91.085938 41.511719 91.027344 41.558594 90.960938 41.601562 C 90.359375 42.007812 89.800781 42.476562 89.160156 42.964844 C 89.144531 42.75 89.125 42.605469 89.125 42.460938 C 89.125 37.65625 89.128906 32.855469 89.121094 28.050781 C 89.121094 27.898438 89.132812 27.753906 89.15625 27.617188 L 89.15625 26.484375 L 86.777344 28.242188 C 86.796875 33.449219 86.777344 38.65625 86.804688 43.863281 C 86.808594 44.519531 86.667969 44.972656 86.085938 45.324219 C 85.535156 45.65625 85.046875 46.09375 84.410156 46.574219 L 84.410156 29.992188 L 82.121094 31.683594 C 82.132812 38.011719 82.125 44.339844 82.128906 50.667969 Z M 82.128906 50.667969 "/></g><g mask="url(#dc4684414f)" transform="matrix(1,0,0,1,72,13)"><g clip-path="url(#26e5d8f91d)"><path style=" stroke:none;fill-rule:nonzero;fill:#1e1e1e;fill-opacity:1;" d="M 45.046875 12.765625 L 45.09375 12.765625 L 45.09375 22.148438 L 45.046875 22.148438 Z M 45.046875 12.765625 "/><path style=" stroke:none;fill-rule:nonzero;fill:#1e1e1e;fill-opacity:1;" d="M 42.046875 6.449219 L 42.132812 6.449219 L 42.132812 25 L 42.046875 25 Z M 42.046875 6.449219 "/><g clip-rule="nonzero" clip-path="url(#64cb2243d3)"><path style=" stroke:none;fill-rule:nonzero;fill:#1e1e1e;fill-opacity:1;" d="M 28.878906 0.976562 L 28.96875 0.976562 L 28.96875 20.875 L 28.878906 20.875 Z M 28.878906 0.976562 "/></g><path style=" stroke:none;fill-rule:nonzero;fill:#1e1e1e;fill-opacity:1;" d="M 16.726562 12.765625 L 16.769531 12.765625 L 16.769531 25.496094 L 16.726562 25.496094 Z M 16.726562 12.765625 "/><path style=" stroke:none;fill-rule:nonzero;fill:#1e1e1e;fill-opacity:1;" d="M 12.941406 2.679688 L 13.03125 2.679688 L 13.03125 20.832031 L 12.941406 20.832031 Z M 12.941406 2.679688 "/><path style=" stroke:none;fill-rule:nonzero;fill:#1e1e1e;fill-opacity:1;" d="M 19.347656 8.011719 L 19.390625 8.011719 L 19.390625 28.746094 L 19.347656 28.746094 Z M 19.347656 8.011719 "/><path style=" stroke:none;fill-rule:nonzero;fill:#1e1e1e;fill-opacity:1;" d="M 25.699219 15.082031 L 25.742188 15.082031 L 25.742188 28.660156 L 25.699219 28.660156 Z M 25.699219 15.082031 "/><path style=" stroke:none;fill-rule:nonzero;fill:#1e1e1e;fill-opacity:1;" d="M 33.871094 17.722656 L 33.917969 17.722656 L 33.917969 28.515625 L 33.871094 28.515625 Z M 33.871094 17.722656 "/><path style=" stroke:none;fill-rule:nonzero;fill:#1e1e1e;fill-opacity:1;" d="M 35.550781 11.742188 L 35.640625 11.742188 L 35.640625 31.253906 L 35.550781 31.253906 Z M 35.550781 11.742188 "/><path style=" stroke:none;fill-rule:nonzero;fill:#1e1e1e;fill-opacity:1;" d="M 44.417969 16.824219 L 44.460938 16.824219 L 44.460938 28.464844 L 44.417969 28.464844 Z M 44.417969 16.824219 "/><path style=" stroke:none;fill-rule:nonzero;fill:#1e1e1e;fill-opacity:1;" d="M 8.097656 8.953125 L 8.144531 8.953125 L 8.144531 28.84375 L 8.097656 28.84375 Z M 8.097656 8.953125 "/><path style=" stroke:none;fill-rule:nonzero;fill:#1e1e1e;fill-opacity:1;" d="M 3.027344 23.996094 L 3.070312 23.996094 L 3.070312 30.773438 L 3.027344 30.773438 Z M 3.027344 23.996094 "/><path style=" stroke:none;fill-rule:nonzero;fill:#1e1e1e;fill-opacity:1;" d="M 21.976562 20.824219 L 22.019531 20.824219 L 22.019531 30.542969 L 21.976562 30.542969 Z M 21.976562 20.824219 "/><path style=" stroke:none;fill-rule:nonzero;fill:#1e1e1e;fill-opacity:1;" d="M 32.03125 6.449219 L 32.078125 6.449219 L 32.078125 34.691406 L 32.03125 34.691406 Z M 32.03125 6.449219 "/><path style=" stroke:none;fill-rule:nonzero;fill:#1e1e1e;fill-opacity:1;" d="M 38.507812 18.546875 L 38.554688 18.546875 L 38.554688 28.472656 L 38.507812 28.472656 Z M 38.507812 18.546875 "/><path style=" stroke:none;fill-rule:nonzero;fill:#1e1e1e;fill-opacity:1;" d="M 10.507812 22.699219 L 10.550781 22.699219 L 10.550781 35.960938 L 10.507812 35.960938 Z M 10.507812 22.699219 "/><path style=" stroke:none;fill-rule:nonzero;fill:#1e1e1e;fill-opacity:1;" d="M 1.042969 16.773438 L 1.132812 16.773438 L 1.132812 31.546875 L 1.042969 31.546875 Z M 1.042969 16.773438 "/><path style=" stroke:none;fill-rule:nonzero;fill:#1e1e1e;fill-opacity:1;" d="M 37.78125 35.207031 C 37.78125 35.367188 37.914062 35.5 38.074219 35.5 C 38.234375 35.5 38.367188 35.367188 38.367188 35.207031 C 38.367188 35.046875 38.234375 34.914062 38.074219 34.914062 C 37.914062 34.902344 37.78125 35.039062 37.78125 35.207031 Z M 37.78125 35.207031 "/><path style=" stroke:none;fill-rule:nonzero;fill:#1e1e1e;fill-opacity:1;" d="M 19.097656 37.800781 C 19.097656 37.960938 19.230469 38.09375 19.390625 38.09375 C 19.550781 38.09375 19.683594 37.960938 19.683594 37.800781 C 19.683594 37.640625 19.550781 37.507812 19.390625 37.507812 C 19.230469 37.507812 19.097656 37.640625 19.097656 37.800781 Z M 19.097656 37.800781 "/><path style=" stroke:none;fill-rule:nonzero;fill:#1e1e1e;fill-opacity:1;" d="M 23.121094 38.945312 C 23.121094 39.035156 23.191406 39.105469 23.28125 39.105469 C 23.371094 39.105469 23.441406 39.035156 23.441406 38.945312 C 23.441406 38.859375 23.371094 38.785156 23.28125 38.785156 C 23.191406 38.777344 23.121094 38.847656 23.121094 38.945312 Z M 23.121094 38.945312 "/><path style=" stroke:none;fill-rule:nonzero;fill:#1e1e1e;fill-opacity:1;" d="M 12.046875 44.136719 C 12.097656 44.21875 12.109375 44.308594 12.085938 44.40625 C 12.0625 44.5 12.007812 44.574219 11.925781 44.625 C 11.839844 44.671875 11.75 44.6875 11.65625 44.664062 C 11.558594 44.636719 11.488281 44.582031 11.4375 44.5 C 11.386719 44.414062 11.375 44.324219 11.398438 44.230469 C 11.421875 44.136719 11.476562 44.0625 11.5625 44.011719 C 11.644531 43.960938 11.734375 43.949219 11.832031 43.972656 C 11.925781 43.996094 11.996094 44.050781 12.046875 44.136719 Z M 12.046875 44.136719 "/><path style=" stroke:none;fill-rule:nonzero;fill:#1e1e1e;fill-opacity:1;" d="M 38.660156 32.789062 C 38.660156 32.566406 38.839844 32.390625 39.058594 32.390625 C 39.28125 32.390625 39.460938 32.566406 39.460938 32.789062 C 39.460938 33.011719 39.28125 33.191406 39.058594 33.191406 C 38.839844 33.179688 38.660156 33.003906 38.660156 32.789062 Z M 38.714844 32.789062 C 38.714844 32.976562 38.863281 33.128906 39.050781 33.128906 C 39.238281 33.128906 39.390625 32.976562 39.390625 32.789062 C 39.390625 32.601562 39.238281 32.453125 39.050781 32.453125 C 38.863281 32.453125 38.714844 32.59375 38.714844 32.789062 Z M 38.714844 32.789062 "/><path style=" stroke:none;fill-rule:nonzero;fill:#1e1e1e;fill-opacity:1;" d="M 38.152344 39.921875 C 38.152344 39.703125 38.332031 39.523438 38.554688 39.523438 C 38.777344 39.523438 38.953125 39.703125 38.953125 39.921875 C 38.953125 40.144531 38.777344 40.324219 38.554688 40.324219 C 38.332031 40.324219 38.152344 40.136719 38.152344 39.921875 Z M 38.207031 39.921875 C 38.207031 40.109375 38.359375 40.261719 38.542969 40.261719 C 38.730469 40.261719 38.882812 40.109375 38.882812 39.921875 C 38.882812 39.738281 38.730469 39.585938 38.542969 39.585938 C 38.359375 39.585938 38.207031 39.738281 38.207031 39.921875 Z M 38.207031 39.921875 "/><path style=" stroke:none;fill-rule:nonzero;fill:#1e1e1e;fill-opacity:1;" d="M 23.707031 34.523438 C 23.707031 34.300781 23.886719 34.121094 24.109375 34.121094 C 24.332031 34.121094 24.507812 34.300781 24.507812 34.523438 C 24.507812 34.746094 24.332031 34.921875 24.109375 34.921875 C 23.886719 34.921875 23.707031 34.746094 23.707031 34.523438 Z M 23.761719 34.523438 C 23.761719 34.707031 23.914062 34.859375 24.097656 34.859375 C 24.285156 34.859375 24.4375 34.707031 24.4375 34.523438 C 24.4375 34.335938 24.285156 34.183594 24.097656 34.183594 C 23.914062 34.183594 23.761719 34.335938 23.761719 34.523438 Z M 23.761719 34.523438 "/><path style=" stroke:none;fill-rule:nonzero;fill:#1e1e1e;fill-opacity:1;" d="M 16.859375 36.121094 C 16.859375 35.898438 17.035156 35.722656 17.257812 35.722656 C 17.480469 35.722656 17.65625 35.898438 17.65625 36.121094 C 17.65625 36.34375 17.480469 36.519531 17.257812 36.519531 C 17.035156 36.511719 16.859375 36.34375 16.859375 36.121094 Z M 16.910156 36.121094 C 16.910156 36.308594 17.0625 36.457031 17.25 36.457031 C 17.4375 36.457031 17.585938 36.308594 17.585938 36.121094 C 17.585938 35.933594 17.4375 35.785156 17.25 35.785156 C 17.0625 35.773438 16.910156 35.933594 16.910156 36.121094 Z M 16.910156 36.121094 "/><path style=" stroke:none;fill-rule:nonzero;fill:#1e1e1e;fill-opacity:1;" d="M 13.199219 40.066406 C 13.199219 39.84375 13.375 39.667969 13.597656 39.667969 C 13.820312 39.667969 13.996094 39.84375 13.996094 40.066406 C 13.996094 40.289062 13.820312 40.464844 13.597656 40.464844 C 13.375 40.464844 13.199219 40.289062 13.199219 40.066406 Z M 13.25 40.066406 C 13.25 40.253906 13.402344 40.402344 13.589844 40.402344 C 13.777344 40.402344 13.925781 40.253906 13.925781 40.066406 C 13.925781 39.878906 13.777344 39.726562 13.589844 39.726562 C 13.402344 39.726562 13.25 39.878906 13.25 40.066406 Z M 13.25 40.066406 "/><path style=" stroke:none;fill-rule:nonzero;fill:#1e1e1e;fill-opacity:1;" d="M 34.03125 32.53125 C 34.03125 32.398438 34.136719 32.285156 34.28125 32.285156 C 34.414062 32.285156 34.527344 32.390625 34.527344 32.53125 C 34.527344 32.675781 34.421875 32.78125 34.28125 32.78125 C 34.136719 32.773438 34.03125 32.664062 34.03125 32.53125 Z M 34.121094 32.53125 C 34.121094 32.621094 34.191406 32.691406 34.28125 32.691406 C 34.371094 32.691406 34.441406 32.621094 34.441406 32.53125 C 34.441406 32.441406 34.371094 32.371094 34.28125 32.371094 C 34.191406 32.371094 34.121094 32.441406 34.121094 32.53125 Z M 34.121094 32.53125 "/><path style=" stroke:none;fill-rule:nonzero;fill:#1e1e1e;fill-opacity:1;" d="M 44.976562 36.023438 C 44.976562 35.792969 45.164062 35.597656 45.402344 35.597656 C 45.632812 35.597656 45.828125 35.785156 45.828125 36.023438 C 45.828125 36.253906 45.644531 36.449219 45.402344 36.449219 C 45.164062 36.449219 44.976562 36.261719 44.976562 36.023438 Z M 45.128906 36.023438 C 45.128906 36.175781 45.253906 36.300781 45.402344 36.300781 C 45.554688 36.300781 45.679688 36.175781 45.679688 36.023438 C 45.679688 35.871094 45.554688 35.75 45.402344 35.75 C 45.253906 35.75 45.128906 35.871094 45.128906 36.023438 Z M 45.128906 36.023438 "/><path style=" stroke:none;fill-rule:nonzero;fill:#1e1e1e;fill-opacity:1;" d="M 5.488281 34.796875 C 5.488281 34.585938 5.65625 34.414062 5.867188 34.414062 C 6.082031 34.414062 6.25 34.585938 6.25 34.796875 C 6.25 35.011719 6.082031 35.179688 5.867188 35.179688 C 5.65625 35.179688 5.488281 35.011719 5.488281 34.796875 Z M 5.621094 34.796875 C 5.621094 34.929688 5.734375 35.046875 5.867188 35.046875 C 6.003906 35.046875 6.117188 34.929688 6.117188 34.796875 C 6.117188 34.664062 6.003906 34.550781 5.867188 34.550781 C 5.734375 34.550781 5.621094 34.664062 5.621094 34.796875 Z M 5.621094 34.796875 "/><path style=" stroke:none;fill-rule:nonzero;fill:#1e1e1e;fill-opacity:1;" d="M 15.394531 30.878906 C 15.394531 30.667969 15.5625 30.496094 15.773438 30.496094 C 15.988281 30.496094 16.15625 30.667969 16.15625 30.878906 C 16.15625 31.09375 15.988281 31.261719 15.773438 31.261719 C 15.570312 31.261719 15.394531 31.09375 15.394531 30.878906 Z M 15.527344 30.878906 C 15.527344 31.011719 15.640625 31.128906 15.773438 31.128906 C 15.90625 31.128906 16.023438 31.011719 16.023438 30.878906 C 16.023438 30.746094 15.90625 30.632812 15.773438 30.632812 C 15.640625 30.632812 15.527344 30.746094 15.527344 30.878906 Z M 15.527344 30.878906 "/><path style=" stroke:none;fill-rule:nonzero;fill:#1e1e1e;fill-opacity:1;" d="M 6.890625 41.761719 C 6.890625 41.550781 7.058594 41.378906 7.273438 41.378906 C 7.484375 41.378906 7.65625 41.550781 7.65625 41.761719 C 7.65625 41.976562 7.484375 42.144531 7.273438 42.144531 C 7.066406 42.144531 6.890625 41.96875 6.890625 41.761719 Z M 7.023438 41.761719 C 7.023438 41.894531 7.140625 42.011719 7.273438 42.011719 C 7.40625 42.011719 7.519531 41.894531 7.519531 41.761719 C 7.519531 41.628906 7.40625 41.515625 7.273438 41.515625 C 7.140625 41.515625 7.023438 41.621094 7.023438 41.761719 Z M 7.023438 41.761719 "/><path style=" stroke:none;fill-rule:nonzero;fill:#1e1e1e;fill-opacity:1;" d="M 29.375 28.585938 C 29.375 28.453125 29.484375 28.339844 29.625 28.339844 C 29.757812 28.339844 29.875 28.445312 29.875 28.585938 C 29.875 28.722656 29.765625 28.835938 29.625 28.835938 C 29.484375 28.828125 29.375 28.722656 29.375 28.585938 Z M 29.457031 28.585938 C 29.457031 28.675781 29.527344 28.746094 29.617188 28.746094 C 29.703125 28.746094 29.777344 28.675781 29.777344 28.585938 C 29.777344 28.5 29.703125 28.425781 29.617188 28.425781 C 29.527344 28.425781 29.457031 28.5 29.457031 28.585938 Z M 29.457031 28.585938 "/><path style=" stroke:none;fill-rule:nonzero;fill:#1e1e1e;fill-opacity:1;" d="M 44.257812 16.78125 C 44.257812 16.886719 44.335938 16.96875 44.445312 16.96875 C 44.550781 16.96875 44.628906 16.886719 44.628906 16.78125 C 44.628906 16.675781 44.550781 16.59375 44.445312 16.59375 C 44.335938 16.59375 44.257812 16.675781 44.257812 16.78125 Z M 44.257812 16.78125 "/><path style=" stroke:none;fill-rule:nonzero;fill:#1e1e1e;fill-opacity:1;" d="M 45.367188 12.800781 C 45.367188 12.882812 45.339844 12.949219 45.28125 13.007812 C 45.226562 13.066406 45.15625 13.09375 45.074219 13.09375 C 44.992188 13.09375 44.925781 13.066406 44.867188 13.007812 C 44.808594 12.949219 44.78125 12.882812 44.78125 12.800781 C 44.78125 12.71875 44.808594 12.648438 44.867188 12.59375 C 44.925781 12.535156 44.992188 12.507812 45.074219 12.507812 C 45.15625 12.507812 45.226562 12.535156 45.28125 12.59375 C 45.339844 12.648438 45.367188 12.71875 45.367188 12.800781 Z M 45.367188 12.800781 "/><path style=" stroke:none;fill-rule:nonzero;fill:#1e1e1e;fill-opacity:1;" d="M 41.902344 6.449219 C 41.902344 6.554688 41.992188 6.636719 42.089844 6.636719 C 42.195312 6.636719 42.277344 6.546875 42.277344 6.449219 C 42.277344 6.351562 42.1875 6.261719 42.089844 6.261719 C 41.984375 6.261719 41.902344 6.351562 41.902344 6.449219 Z M 41.902344 6.449219 "/><path style=" stroke:none;fill-rule:nonzero;fill:#1e1e1e;fill-opacity:1;" d="M 38.324219 18.566406 C 38.324219 18.683594 38.410156 18.769531 38.527344 18.769531 C 38.640625 18.769531 38.730469 18.683594 38.730469 18.566406 C 38.730469 18.449219 38.640625 18.363281 38.527344 18.363281 C 38.410156 18.351562 38.324219 18.449219 38.324219 18.566406 Z M 38.324219 18.566406 "/><path style=" stroke:none;fill-rule:nonzero;fill:#1e1e1e;fill-opacity:1;" d="M 36.066406 11.65625 C 36.066406 11.785156 36.019531 11.894531 35.929688 11.988281 C 35.835938 12.078125 35.726562 12.125 35.59375 12.125 C 35.464844 12.125 35.355469 12.078125 35.261719 11.988281 C 35.171875 11.894531 35.125 11.785156 35.125 11.65625 C 35.125 11.523438 35.171875 11.414062 35.261719 11.320312 C 35.355469 11.230469 35.464844 11.183594 35.59375 11.183594 C 35.726562 11.183594 35.835938 11.230469 35.929688 11.320312 C 36.019531 11.414062 36.066406 11.523438 36.066406 11.65625 Z M 36.066406 11.65625 "/><path style=" stroke:none;fill-rule:nonzero;fill:#1e1e1e;fill-opacity:1;" d="M 31.871094 6.242188 C 31.871094 6.351562 31.953125 6.429688 32.058594 6.429688 C 32.164062 6.429688 32.246094 6.351562 32.246094 6.242188 C 32.246094 6.136719 32.164062 6.058594 32.058594 6.058594 C 31.953125 6.058594 31.871094 6.144531 31.871094 6.242188 Z M 31.871094 6.242188 "/><path style=" stroke:none;fill-rule:nonzero;fill:#1e1e1e;fill-opacity:1;" d="M 31.871094 2.972656 C 31.871094 3.082031 31.953125 3.160156 32.058594 3.160156 C 32.164062 3.160156 32.246094 3.082031 32.246094 2.972656 C 32.246094 2.867188 32.164062 2.789062 32.058594 2.789062 C 31.953125 2.789062 31.871094 2.867188 31.871094 2.972656 Z M 31.871094 2.972656 "/><g clip-rule="nonzero" clip-path="url(#b47151702d)"><path style=" stroke:none;fill-rule:nonzero;fill:#1e1e1e;fill-opacity:1;" d="M 29.394531 0.78125 C 29.394531 0.910156 29.347656 1.019531 29.257812 1.113281 C 29.164062 1.203125 29.054688 1.25 28.921875 1.25 C 28.792969 1.25 28.683594 1.203125 28.589844 1.113281 C 28.5 1.019531 28.453125 0.910156 28.453125 0.78125 C 28.453125 0.648438 28.5 0.539062 28.589844 0.445312 C 28.683594 0.355469 28.792969 0.308594 28.921875 0.308594 C 29.054688 0.308594 29.164062 0.355469 29.257812 0.445312 C 29.347656 0.539062 29.394531 0.648438 29.394531 0.78125 Z M 29.394531 0.78125 "/></g><path style=" stroke:none;fill-rule:nonzero;fill:#1e1e1e;fill-opacity:1;" d="M 25.421875 15.234375 C 25.421875 15.394531 25.554688 15.527344 25.714844 15.527344 C 25.875 15.527344 26.007812 15.394531 26.007812 15.234375 C 26.007812 15.074219 25.875 14.941406 25.714844 14.941406 C 25.554688 14.941406 25.421875 15.066406 25.421875 15.234375 Z M 25.421875 15.234375 "/><path style=" stroke:none;fill-rule:nonzero;fill:#1e1e1e;fill-opacity:1;" d="M 19.816406 8.011719 C 19.816406 8.132812 19.773438 8.238281 19.6875 8.324219 C 19.601562 8.414062 19.496094 8.457031 19.371094 8.457031 C 19.25 8.457031 19.144531 8.414062 19.058594 8.324219 C 18.972656 8.238281 18.929688 8.132812 18.929688 8.011719 C 18.929688 7.890625 18.972656 7.785156 19.058594 7.699219 C 19.144531 7.609375 19.25 7.566406 19.371094 7.566406 C 19.496094 7.566406 19.601562 7.609375 19.6875 7.699219 C 19.773438 7.785156 19.816406 7.890625 19.816406 8.011719 Z M 19.816406 8.011719 "/><path style=" stroke:none;fill-rule:nonzero;fill:#1e1e1e;fill-opacity:1;" d="M 12.691406 2.679688 C 12.691406 2.839844 12.824219 2.972656 12.984375 2.972656 C 13.144531 2.972656 13.277344 2.839844 13.277344 2.679688 C 13.277344 2.519531 13.144531 2.386719 12.984375 2.386719 C 12.824219 2.378906 12.691406 2.511719 12.691406 2.679688 Z M 12.691406 2.679688 "/><path style=" stroke:none;fill-rule:nonzero;fill:#1e1e1e;fill-opacity:1;" d="M 8.378906 8.644531 C 8.449219 8.714844 8.484375 8.800781 8.484375 8.902344 C 8.484375 9.003906 8.449219 9.089844 8.378906 9.160156 C 8.304688 9.230469 8.21875 9.265625 8.121094 9.265625 C 8.019531 9.265625 7.933594 9.230469 7.863281 9.160156 C 7.789062 9.089844 7.753906 9.003906 7.753906 8.902344 C 7.753906 8.800781 7.789062 8.714844 7.863281 8.644531 C 7.933594 8.574219 8.019531 8.539062 8.121094 8.539062 C 8.21875 8.539062 8.304688 8.574219 8.378906 8.644531 Z M 8.378906 8.644531 "/><path style=" stroke:none;fill-rule:nonzero;fill:#1e1e1e;fill-opacity:1;" d="M 7.964844 5 C 7.964844 5.089844 8.035156 5.160156 8.125 5.160156 C 8.214844 5.160156 8.285156 5.089844 8.285156 5 C 8.285156 4.910156 8.214844 4.839844 8.125 4.839844 C 8.035156 4.839844 7.964844 4.910156 7.964844 5 Z M 7.964844 5 "/><g clip-rule="nonzero" clip-path="url(#1c2c230db2)"><path style=" stroke:none;fill-rule:nonzero;fill:#1e1e1e;fill-opacity:1;" d="M 0.789062 16.871094 C 0.789062 17.027344 0.921875 17.164062 1.082031 17.164062 C 1.238281 17.164062 1.375 17.027344 1.375 16.871094 C 1.375 16.710938 1.238281 16.578125 1.082031 16.578125 C 0.921875 16.578125 0.789062 16.710938 0.789062 16.871094 Z M 0.789062 16.871094 "/></g><path style=" stroke:none;fill-rule:nonzero;fill:#1e1e1e;fill-opacity:1;" d="M 2.917969 23.984375 C 2.917969 24.058594 2.980469 24.117188 3.050781 24.117188 C 3.125 24.117188 3.1875 24.058594 3.1875 23.984375 C 3.1875 23.914062 3.125 23.851562 3.050781 23.851562 C 2.980469 23.851562 2.917969 23.914062 2.917969 23.984375 Z M 2.917969 23.984375 "/><path style=" stroke:none;fill-rule:nonzero;fill:#1e1e1e;fill-opacity:1;" d="M 3.1875 19.996094 C 3.1875 20.085938 3.140625 20.128906 3.050781 20.128906 C 2.964844 20.128906 2.917969 20.085938 2.917969 19.996094 C 2.917969 19.90625 2.964844 19.863281 3.050781 19.863281 C 3.140625 19.863281 3.1875 19.90625 3.1875 19.996094 Z M 3.1875 19.996094 "/><path style=" stroke:none;fill-rule:nonzero;fill:#1e1e1e;fill-opacity:1;" d="M 2.917969 12.765625 C 2.917969 12.835938 2.980469 12.898438 3.050781 12.898438 C 3.125 12.898438 3.1875 12.835938 3.1875 12.765625 C 3.1875 12.695312 3.125 12.632812 3.050781 12.632812 C 2.980469 12.632812 2.917969 12.695312 2.917969 12.765625 Z M 2.917969 12.765625 "/><path style=" stroke:none;fill-rule:nonzero;fill:#1e1e1e;fill-opacity:1;" d="M 10.230469 22.5625 C 10.230469 22.722656 10.363281 22.855469 10.523438 22.855469 C 10.683594 22.855469 10.816406 22.722656 10.816406 22.5625 C 10.816406 22.402344 10.683594 22.269531 10.523438 22.269531 C 10.355469 22.269531 10.230469 22.402344 10.230469 22.5625 Z M 10.230469 22.5625 "/><path style=" stroke:none;fill-rule:nonzero;fill:#1e1e1e;fill-opacity:1;" d="M 10.230469 16.417969 C 10.230469 16.578125 10.363281 16.710938 10.523438 16.710938 C 10.683594 16.710938 10.816406 16.578125 10.816406 16.417969 C 10.816406 16.257812 10.683594 16.125 10.523438 16.125 C 10.355469 16.125 10.230469 16.246094 10.230469 16.417969 Z M 10.230469 16.417969 "/><path style=" stroke:none;fill-rule:nonzero;fill:#1e1e1e;fill-opacity:1;" d="M 17.511719 12.617188 C 17.550781 12.824219 17.511719 13.019531 17.394531 13.195312 C 17.273438 13.371094 17.109375 13.480469 16.898438 13.523438 C 16.691406 13.5625 16.496094 13.523438 16.320312 13.402344 C 16.144531 13.285156 16.035156 13.121094 15.992188 12.910156 C 15.953125 12.699219 15.992188 12.507812 16.113281 12.332031 C 16.230469 12.152344 16.394531 12.042969 16.605469 12.003906 C 16.816406 11.964844 17.007812 12.003906 17.183594 12.121094 C 17.363281 12.242188 17.46875 12.40625 17.511719 12.617188 Z M 17.511719 12.617188 "/><path style=" stroke:none;fill-rule:nonzero;fill:#1e1e1e;fill-opacity:1;" d="M 21.832031 20.691406 C 21.832031 20.777344 21.90625 20.847656 21.992188 20.847656 C 22.082031 20.847656 22.152344 20.777344 22.152344 20.691406 C 22.152344 20.601562 22.082031 20.53125 21.992188 20.53125 C 21.914062 20.53125 21.832031 20.601562 21.832031 20.691406 Z M 21.832031 20.691406 "/><path style=" stroke:none;fill-rule:nonzero;fill:#1e1e1e;fill-opacity:1;" d="M 21.832031 13.101562 C 21.832031 13.191406 21.90625 13.261719 21.992188 13.261719 C 22.082031 13.261719 22.152344 13.191406 22.152344 13.101562 C 22.152344 13.011719 22.082031 12.941406 21.992188 12.941406 C 21.914062 12.941406 21.832031 13.011719 21.832031 13.101562 Z M 21.832031 13.101562 "/><path style=" stroke:none;fill-rule:nonzero;fill:#1e1e1e;fill-opacity:1;" d="M 33.71875 17.632812 C 33.71875 17.730469 33.800781 17.8125 33.898438 17.8125 C 33.996094 17.8125 34.074219 17.730469 34.074219 17.632812 C 34.074219 17.535156 33.996094 17.457031 33.898438 17.457031 C 33.792969 17.457031 33.71875 17.535156 33.71875 17.632812 Z M 33.71875 17.632812 "/><path style=" stroke:none;fill-rule:nonzero;fill:#1e1e1e;fill-opacity:1;" d="M 33.71875 14.765625 C 33.71875 14.863281 33.800781 14.941406 33.898438 14.941406 C 33.996094 14.941406 34.074219 14.863281 34.074219 14.765625 C 34.074219 14.667969 33.996094 14.585938 33.898438 14.585938 C 33.792969 14.585938 33.71875 14.667969 33.71875 14.765625 Z M 33.71875 14.765625 "/><path style=" stroke:none;fill-rule:nonzero;fill:#1e1e1e;fill-opacity:1;" d="M 44.835938 22.121094 C 44.835938 22.253906 44.941406 22.351562 45.066406 22.351562 C 45.191406 22.351562 45.296875 22.246094 45.296875 22.121094 C 45.296875 21.988281 45.191406 21.890625 45.066406 21.890625 C 44.941406 21.890625 44.835938 21.996094 44.835938 22.121094 Z M 44.835938 22.121094 "/><path style=" stroke:none;fill-rule:nonzero;fill:#1e1e1e;fill-opacity:1;" d="M 44.59375 22.121094 C 44.59375 21.851562 44.808594 21.640625 45.074219 21.640625 C 45.339844 21.640625 45.554688 21.851562 45.554688 22.121094 C 45.554688 22.386719 45.339844 22.601562 45.074219 22.601562 C 44.808594 22.601562 44.59375 22.386719 44.59375 22.121094 Z M 44.621094 22.121094 C 44.621094 22.367188 44.824219 22.574219 45.074219 22.574219 C 45.324219 22.574219 45.527344 22.367188 45.527344 22.121094 C 45.527344 21.871094 45.324219 21.667969 45.074219 21.667969 C 44.824219 21.675781 44.621094 21.871094 44.621094 22.121094 Z M 44.621094 22.121094 "/><path style=" stroke:none;fill-rule:nonzero;fill:#1e1e1e;fill-opacity:1;" d="M 4.410156 39.933594 C 4.410156 40.058594 4.367188 40.167969 4.277344 40.257812 C 4.1875 40.347656 4.078125 40.394531 3.949219 40.394531 C 3.824219 40.394531 3.714844 40.347656 3.625 40.257812 C 3.53125 40.167969 3.488281 40.058594 3.488281 39.933594 C 3.488281 39.804688 3.53125 39.695312 3.625 39.605469 C 3.714844 39.515625 3.824219 39.46875 3.949219 39.46875 C 4.078125 39.46875 4.1875 39.515625 4.277344 39.605469 C 4.367188 39.695312 4.410156 39.804688 4.410156 39.933594 Z M 4.410156 39.933594 "/><path style=" stroke:none;fill-rule:nonzero;fill:#1e1e1e;fill-opacity:1;" d="M 3.007812 39.933594 C 3.007812 39.410156 3.433594 38.992188 3.949219 38.992188 C 4.472656 38.992188 4.890625 39.417969 4.890625 39.933594 C 4.890625 40.457031 4.464844 40.875 3.949219 40.875 C 3.425781 40.875 3.007812 40.449219 3.007812 39.933594 Z M 3.0625 39.933594 C 3.0625 40.421875 3.460938 40.820312 3.949219 40.820312 C 4.4375 40.820312 4.839844 40.421875 4.839844 39.933594 C 4.839844 39.445312 4.4375 39.042969 3.949219 39.042969 C 3.460938 39.042969 3.0625 39.445312 3.0625 39.933594 Z M 3.0625 39.933594 "/><path style=" stroke:none;fill-rule:nonzero;fill:#1e1e1e;fill-opacity:1;" d="M 43.003906 37.523438 C 43.003906 37.597656 42.980469 37.660156 42.925781 37.714844 C 42.875 37.765625 42.8125 37.792969 42.738281 37.792969 C 42.664062 37.792969 42.601562 37.765625 42.550781 37.714844 C 42.496094 37.660156 42.472656 37.597656 42.472656 37.523438 C 42.472656 37.453125 42.496094 37.386719 42.550781 37.335938 C 42.601562 37.285156 42.664062 37.257812 42.738281 37.257812 C 42.8125 37.257812 42.875 37.285156 42.925781 37.335938 C 42.980469 37.386719 43.003906 37.453125 43.003906 37.523438 Z M 43.003906 37.523438 "/><path style=" stroke:none;fill-rule:nonzero;fill:#1e1e1e;fill-opacity:1;" d="M 42.195312 37.523438 C 42.195312 37.222656 42.4375 36.984375 42.738281 36.984375 C 43.039062 36.984375 43.28125 37.222656 43.28125 37.523438 C 43.28125 37.828125 43.039062 38.066406 42.738281 38.066406 C 42.4375 38.074219 42.195312 37.828125 42.195312 37.523438 Z M 42.230469 37.523438 C 42.230469 37.808594 42.460938 38.039062 42.746094 38.039062 C 43.03125 38.039062 43.261719 37.808594 43.261719 37.523438 C 43.261719 37.242188 43.03125 37.007812 42.746094 37.007812 C 42.453125 37.019531 42.230469 37.25 42.230469 37.523438 Z M 42.230469 37.523438 "/><path style=" stroke:none;fill-rule:nonzero;fill:#1e1e1e;fill-opacity:1;" d="M 33.660156 28.523438 C 33.660156 28.660156 33.765625 28.757812 33.890625 28.757812 C 34.015625 28.757812 34.121094 28.648438 34.121094 28.523438 C 34.121094 28.402344 34.015625 28.292969 33.890625 28.292969 C 33.765625 28.292969 33.660156 28.402344 33.660156 28.523438 Z M 33.660156 28.523438 "/><path style=" stroke:none;fill-rule:nonzero;fill:#1e1e1e;fill-opacity:1;" d="M 33.410156 28.523438 C 33.410156 28.257812 33.621094 28.046875 33.890625 28.046875 C 34.15625 28.046875 34.371094 28.257812 34.371094 28.523438 C 34.371094 28.792969 34.15625 29.003906 33.890625 29.003906 C 33.621094 29.003906 33.410156 28.792969 33.410156 28.523438 Z M 33.4375 28.523438 C 33.4375 28.773438 33.640625 28.976562 33.890625 28.976562 C 34.136719 28.976562 34.34375 28.773438 34.34375 28.523438 C 34.34375 28.277344 34.136719 28.074219 33.890625 28.074219 C 33.640625 28.082031 33.4375 28.277344 33.4375 28.523438 Z M 33.4375 28.523438 "/><path style=" stroke:none;fill-rule:nonzero;fill:#1e1e1e;fill-opacity:1;" d="M 36.332031 39.042969 C 36.332031 39.175781 36.4375 39.273438 36.5625 39.273438 C 36.695312 39.273438 36.792969 39.167969 36.792969 39.042969 C 36.792969 38.910156 36.6875 38.8125 36.5625 38.8125 C 36.4375 38.8125 36.332031 38.917969 36.332031 39.042969 Z M 36.332031 39.042969 "/><path style=" stroke:none;fill-rule:nonzero;fill:#1e1e1e;fill-opacity:1;" d="M 36.082031 39.042969 C 36.082031 38.777344 36.296875 38.566406 36.5625 38.566406 C 36.832031 38.566406 37.042969 38.777344 37.042969 39.042969 C 37.042969 39.3125 36.832031 39.523438 36.5625 39.523438 C 36.304688 39.523438 36.082031 39.3125 36.082031 39.042969 Z M 36.121094 39.042969 C 36.121094 39.292969 36.324219 39.496094 36.574219 39.496094 C 36.820312 39.496094 37.027344 39.292969 37.027344 39.042969 C 37.027344 38.796875 36.820312 38.589844 36.574219 38.589844 C 36.316406 38.601562 36.121094 38.796875 36.121094 39.042969 Z M 36.121094 39.042969 "/><path style=" stroke:none;fill-rule:nonzero;fill:#1e1e1e;fill-opacity:1;" d="M 22.296875 42.960938 C 22.296875 43.09375 22.402344 43.191406 22.527344 43.191406 C 22.652344 43.191406 22.757812 43.085938 22.757812 42.960938 C 22.757812 42.835938 22.652344 42.730469 22.527344 42.730469 C 22.402344 42.730469 22.296875 42.835938 22.296875 42.960938 Z M 22.296875 42.960938 "/><path style=" stroke:none;fill-rule:nonzero;fill:#1e1e1e;fill-opacity:1;" d="M 22.046875 42.960938 C 22.046875 42.695312 22.261719 42.480469 22.527344 42.480469 C 22.792969 42.480469 23.007812 42.695312 23.007812 42.960938 C 23.007812 43.230469 22.792969 43.441406 22.527344 43.441406 C 22.261719 43.441406 22.046875 43.230469 22.046875 42.960938 Z M 22.074219 42.960938 C 22.074219 43.210938 22.277344 43.414062 22.527344 43.414062 C 22.777344 43.414062 22.980469 43.210938 22.980469 42.960938 C 22.980469 42.714844 22.777344 42.507812 22.527344 42.507812 C 22.277344 42.519531 22.074219 42.714844 22.074219 42.960938 Z M 22.074219 42.960938 "/><path style=" stroke:none;fill-rule:nonzero;fill:#1e1e1e;fill-opacity:1;" d="M 41.929688 24.953125 C 41.929688 25.042969 42 25.113281 42.089844 25.113281 C 42.179688 25.113281 42.25 25.042969 42.25 24.953125 C 42.25 24.863281 42.179688 24.792969 42.089844 24.792969 C 42 24.792969 41.929688 24.863281 41.929688 24.953125 Z M 41.929688 24.953125 "/><path style=" stroke:none;fill-rule:nonzero;fill:#1e1e1e;fill-opacity:1;" d="M 41.433594 24.953125 C 41.433594 24.589844 41.726562 24.296875 42.089844 24.296875 C 42.453125 24.296875 42.746094 24.589844 42.746094 24.953125 C 42.746094 25.316406 42.453125 25.613281 42.089844 25.613281 C 41.726562 25.613281 41.433594 25.308594 41.433594 24.953125 Z M 41.46875 24.953125 C 41.46875 25.292969 41.742188 25.574219 42.089844 25.574219 C 42.425781 25.574219 42.710938 25.300781 42.710938 24.953125 C 42.710938 24.609375 42.4375 24.332031 42.089844 24.332031 C 41.742188 24.332031 41.46875 24.609375 41.46875 24.953125 Z M 41.46875 24.953125 "/><path style=" stroke:none;fill-rule:nonzero;fill:#1e1e1e;fill-opacity:1;" d="M 35.347656 31.242188 C 35.347656 31.378906 35.460938 31.492188 35.59375 31.492188 C 35.726562 31.492188 35.84375 31.378906 35.84375 31.242188 C 35.84375 31.109375 35.726562 30.996094 35.59375 30.996094 C 35.460938 30.996094 35.347656 31.109375 35.347656 31.242188 Z M 35.347656 31.242188 "/><path style=" stroke:none;fill-rule:nonzero;fill:#1e1e1e;fill-opacity:1;" d="M 34.554688 31.242188 C 34.554688 30.667969 35.027344 30.203125 35.59375 30.203125 C 36.164062 30.203125 36.632812 30.675781 36.632812 31.242188 C 36.632812 31.820312 36.164062 32.285156 35.59375 32.285156 C 35.027344 32.285156 34.554688 31.820312 34.554688 31.242188 Z M 34.617188 31.242188 C 34.617188 31.785156 35.0625 32.222656 35.59375 32.222656 C 36.128906 32.222656 36.574219 31.777344 36.574219 31.242188 C 36.574219 30.703125 36.128906 30.265625 35.59375 30.265625 C 35.0625 30.265625 34.617188 30.703125 34.617188 31.242188 Z M 34.617188 31.242188 "/><path style=" stroke:none;fill-rule:nonzero;fill:#1e1e1e;fill-opacity:1;" d="M 34.308594 42.214844 C 34.308594 42.347656 34.421875 42.464844 34.554688 42.464844 C 34.6875 42.464844 34.804688 42.347656 34.804688 42.214844 C 34.804688 42.082031 34.6875 41.96875 34.554688 41.96875 C 34.414062 41.96875 34.308594 42.074219 34.308594 42.214844 Z M 34.308594 42.214844 "/><path style=" stroke:none;fill-rule:nonzero;fill:#1e1e1e;fill-opacity:1;" d="M 33.507812 42.214844 C 33.507812 41.636719 33.976562 41.175781 34.546875 41.175781 C 35.125 41.175781 35.585938 41.648438 35.585938 42.214844 C 35.585938 42.792969 35.117188 43.253906 34.546875 43.253906 C 33.976562 43.253906 33.507812 42.792969 33.507812 42.214844 Z M 33.570312 42.214844 C 33.570312 42.757812 34.015625 43.191406 34.546875 43.191406 C 35.089844 43.191406 35.523438 42.75 35.523438 42.214844 C 35.523438 41.683594 35.078125 41.238281 34.546875 41.238281 C 34.015625 41.230469 33.570312 41.675781 33.570312 42.214844 Z M 33.570312 42.214844 "/><path style=" stroke:none;fill-rule:nonzero;fill:#1e1e1e;fill-opacity:1;" d="M 28.859375 40.632812 C 28.859375 40.769531 28.96875 40.875 29.101562 40.875 C 29.234375 40.875 29.339844 40.769531 29.339844 40.632812 C 29.339844 40.5 29.234375 40.394531 29.101562 40.394531 C 28.96875 40.394531 28.859375 40.5 28.859375 40.632812 Z M 28.859375 40.632812 "/><path style=" stroke:none;fill-rule:nonzero;fill:#1e1e1e;fill-opacity:1;" d="M 28.097656 40.632812 C 28.097656 40.082031 28.542969 39.640625 29.09375 39.640625 C 29.644531 39.640625 30.085938 40.082031 30.085938 40.632812 C 30.085938 41.183594 29.644531 41.628906 29.09375 41.628906 C 28.550781 41.628906 28.097656 41.183594 28.097656 40.632812 Z M 28.160156 40.632812 C 28.160156 41.148438 28.578125 41.578125 29.101562 41.578125 C 29.625 41.578125 30.042969 41.160156 30.042969 40.632812 C 30.042969 40.121094 29.625 39.691406 29.101562 39.691406 C 28.578125 39.691406 28.160156 40.121094 28.160156 40.632812 Z M 28.160156 40.632812 "/><path style=" stroke:none;fill-rule:nonzero;fill:#1e1e1e;fill-opacity:1;" d="M 7.875 28.808594 C 7.875 28.941406 7.984375 29.050781 8.117188 29.050781 C 8.25 29.050781 8.355469 28.941406 8.355469 28.808594 C 8.355469 28.675781 8.25 28.570312 8.117188 28.570312 C 7.984375 28.570312 7.875 28.675781 7.875 28.808594 Z M 7.875 28.808594 "/><path style=" stroke:none;fill-rule:nonzero;fill:#1e1e1e;fill-opacity:1;" d="M 7.113281 28.808594 C 7.113281 28.257812 7.558594 27.816406 8.109375 27.816406 C 8.660156 27.816406 9.101562 28.257812 9.101562 28.808594 C 9.101562 29.359375 8.660156 29.804688 8.109375 29.804688 C 7.566406 29.804688 7.113281 29.359375 7.113281 28.808594 Z M 7.175781 28.808594 C 7.175781 29.324219 7.59375 29.75 8.117188 29.75 C 8.632812 29.75 9.058594 29.332031 9.058594 28.808594 C 9.058594 28.292969 8.640625 27.867188 8.117188 27.867188 C 7.59375 27.867188 7.175781 28.285156 7.175781 28.808594 Z M 7.175781 28.808594 "/><path style=" stroke:none;fill-rule:nonzero;fill:#1e1e1e;fill-opacity:1;" d="M 12.753906 20.847656 C 12.753906 20.984375 12.859375 21.089844 12.992188 21.089844 C 13.128906 21.089844 13.234375 20.984375 13.234375 20.847656 C 13.234375 20.714844 13.128906 20.609375 12.992188 20.609375 C 12.859375 20.609375 12.753906 20.714844 12.753906 20.847656 Z M 12.753906 20.847656 "/><path style=" stroke:none;fill-rule:nonzero;fill:#1e1e1e;fill-opacity:1;" d="M 11.988281 20.847656 C 11.988281 20.296875 12.433594 19.855469 12.984375 19.855469 C 13.535156 19.855469 13.980469 20.296875 13.980469 20.847656 C 13.980469 21.398438 13.535156 21.84375 12.984375 21.84375 C 12.433594 21.84375 11.988281 21.398438 11.988281 20.847656 Z M 12.050781 20.847656 C 12.050781 21.363281 12.46875 21.792969 12.992188 21.792969 C 13.507812 21.792969 13.9375 21.375 13.9375 20.847656 C 13.9375 20.335938 13.519531 19.90625 12.992188 19.90625 C 12.46875 19.917969 12.050781 20.335938 12.050781 20.847656 Z M 12.050781 20.847656 "/><g clip-rule="nonzero" clip-path="url(#7594da9710)"><path style=" stroke:none;fill-rule:nonzero;fill:#1e1e1e;fill-opacity:1;" d="M 0.9375 31.511719 C 0.9375 31.589844 1 31.652344 1.082031 31.652344 C 1.160156 31.652344 1.222656 31.589844 1.222656 31.511719 C 1.222656 31.429688 1.160156 31.367188 1.082031 31.367188 C 1.007812 31.367188 0.9375 31.429688 0.9375 31.511719 Z M 0.9375 31.511719 "/></g><g clip-rule="nonzero" clip-path="url(#2bd883715a)"><path style=" stroke:none;fill-rule:nonzero;fill:#1e1e1e;fill-opacity:1;" d="M 0.484375 31.511719 C 0.484375 31.183594 0.75 30.90625 1.089844 30.90625 C 1.417969 30.90625 1.691406 31.171875 1.691406 31.511719 C 1.691406 31.839844 1.425781 32.113281 1.089844 32.113281 C 0.75 32.105469 0.484375 31.839844 0.484375 31.511719 Z M 0.519531 31.511719 C 0.519531 31.820312 0.769531 32.070312 1.082031 32.070312 C 1.390625 32.070312 1.640625 31.820312 1.640625 31.511719 C 1.640625 31.199219 1.390625 30.949219 1.082031 30.949219 C 0.777344 30.941406 0.519531 31.199219 0.519531 31.511719 Z M 0.519531 31.511719 "/></g><path style=" stroke:none;fill-rule:nonzero;fill:#1e1e1e;fill-opacity:1;" d="M 21.84375 30.542969 C 21.84375 30.632812 21.914062 30.703125 22.003906 30.703125 C 22.089844 30.703125 22.164062 30.632812 22.164062 30.542969 C 22.164062 30.453125 22.089844 30.382812 22.003906 30.382812 C 21.914062 30.382812 21.84375 30.453125 21.84375 30.542969 Z M 21.84375 30.542969 "/><path style=" stroke:none;fill-rule:nonzero;fill:#1e1e1e;fill-opacity:1;" d="M 21.328125 30.542969 C 21.328125 30.167969 21.628906 29.867188 22.003906 29.867188 C 22.375 29.867188 22.675781 30.167969 22.675781 30.542969 C 22.675781 30.914062 22.375 31.21875 22.003906 31.21875 C 21.628906 31.21875 21.328125 30.914062 21.328125 30.542969 Z M 21.371094 30.542969 C 21.371094 30.886719 21.65625 31.171875 22.003906 31.171875 C 22.347656 31.171875 22.632812 30.886719 22.632812 30.542969 C 22.632812 30.195312 22.347656 29.910156 22.003906 29.910156 C 21.648438 29.910156 21.371094 30.195312 21.371094 30.542969 Z M 21.371094 30.542969 "/><path style=" stroke:none;fill-rule:nonzero;fill:#1e1e1e;fill-opacity:1;" d="M 9.554688 35.960938 C 9.554688 35.429688 9.992188 34.992188 10.523438 34.992188 C 11.058594 34.992188 11.492188 35.429688 11.492188 35.960938 C 11.492188 36.496094 11.058594 36.929688 10.523438 36.929688 C 9.992188 36.929688 9.554688 36.496094 9.554688 35.960938 Z M 9.589844 35.960938 C 9.589844 36.476562 10.007812 36.894531 10.523438 36.894531 C 11.039062 36.894531 11.457031 36.476562 11.457031 35.960938 C 11.457031 35.445312 11.039062 35.027344 10.523438 35.027344 C 10.007812 35.027344 9.589844 35.445312 9.589844 35.960938 Z M 9.589844 35.960938 "/><path style=" stroke:none;fill-rule:nonzero;fill:#1e1e1e;fill-opacity:1;" d="M 9.246094 35.960938 C 9.246094 35.257812 9.824219 34.683594 10.523438 34.683594 C 11.226562 34.683594 11.804688 35.257812 11.804688 35.960938 C 11.804688 36.664062 11.226562 37.242188 10.523438 37.242188 C 9.824219 37.242188 9.246094 36.671875 9.246094 35.960938 Z M 9.289062 35.960938 C 9.289062 36.636719 9.839844 37.195312 10.523438 37.195312 C 11.207031 37.195312 11.757812 36.644531 11.757812 35.960938 C 11.757812 35.277344 11.207031 34.726562 10.523438 34.726562 C 9.839844 34.726562 9.289062 35.285156 9.289062 35.960938 Z M 9.289062 35.960938 "/><path style=" stroke:none;fill-rule:nonzero;fill:#1e1e1e;fill-opacity:1;" d="M 11.21875 35.960938 C 11.21875 36.152344 11.148438 36.316406 11.015625 36.453125 C 10.878906 36.585938 10.714844 36.65625 10.523438 36.65625 C 10.332031 36.65625 10.167969 36.585938 10.035156 36.453125 C 9.898438 36.316406 9.832031 36.152344 9.832031 35.960938 C 9.832031 35.769531 9.898438 35.605469 10.035156 35.472656 C 10.167969 35.335938 10.332031 35.269531 10.523438 35.269531 C 10.714844 35.269531 10.878906 35.335938 11.015625 35.472656 C 11.148438 35.605469 11.21875 35.769531 11.21875 35.960938 Z M 11.21875 35.960938 "/><path style=" stroke:none;fill-rule:nonzero;fill:#1e1e1e;fill-opacity:1;" d="M 28.542969 20.75 C 28.542969 20.539062 28.710938 20.371094 28.921875 20.371094 C 29.136719 20.371094 29.304688 20.539062 29.304688 20.75 C 29.304688 20.964844 29.136719 21.132812 28.921875 21.132812 C 28.710938 21.125 28.542969 20.957031 28.542969 20.75 Z M 28.558594 20.75 C 28.558594 20.957031 28.71875 21.117188 28.921875 21.117188 C 29.128906 21.117188 29.289062 20.957031 29.289062 20.75 C 29.289062 20.546875 29.128906 20.386719 28.921875 20.386719 C 28.71875 20.378906 28.558594 20.546875 28.558594 20.75 Z M 28.558594 20.75 "/><path style=" stroke:none;fill-rule:nonzero;fill:#1e1e1e;fill-opacity:1;" d="M 28.425781 20.75 C 28.425781 20.476562 28.648438 20.253906 28.921875 20.253906 C 29.199219 20.253906 29.421875 20.476562 29.421875 20.75 C 29.421875 21.027344 29.199219 21.25 28.921875 21.25 C 28.648438 21.25 28.425781 21.027344 28.425781 20.75 Z M 28.445312 20.75 C 28.445312 21.019531 28.65625 21.230469 28.921875 21.230469 C 29.191406 21.230469 29.402344 21.019531 29.402344 20.75 C 29.402344 20.484375 29.191406 20.273438 28.921875 20.273438 C 28.65625 20.273438 28.445312 20.484375 28.445312 20.75 Z M 28.445312 20.75 "/><path style=" stroke:none;fill-rule:nonzero;fill:#1e1e1e;fill-opacity:1;" d="M 28.648438 20.75 C 28.648438 20.902344 28.773438 21.027344 28.921875 21.027344 C 29.074219 21.027344 29.199219 20.902344 29.199219 20.75 C 29.199219 20.601562 29.074219 20.476562 28.921875 20.476562 C 28.773438 20.476562 28.648438 20.601562 28.648438 20.75 Z M 28.648438 20.75 "/><path style=" stroke:none;fill-rule:nonzero;fill:#1e1e1e;fill-opacity:1;" d="M 18.832031 28.613281 C 18.832031 28.3125 19.078125 28.074219 19.371094 28.074219 C 19.675781 28.074219 19.914062 28.320312 19.914062 28.613281 C 19.914062 28.917969 19.664062 29.15625 19.371094 29.15625 C 19.070312 29.164062 18.832031 28.917969 18.832031 28.613281 Z M 18.847656 28.613281 C 18.847656 28.90625 19.089844 29.136719 19.371094 29.136719 C 19.664062 29.136719 19.898438 28.898438 19.898438 28.613281 C 19.898438 28.320312 19.65625 28.089844 19.371094 28.089844 C 19.078125 28.089844 18.847656 28.328125 18.847656 28.613281 Z M 18.847656 28.613281 "/><path style=" stroke:none;fill-rule:nonzero;fill:#1e1e1e;fill-opacity:1;" d="M 18.652344 28.613281 C 18.652344 28.214844 18.972656 27.894531 19.371094 27.894531 C 19.773438 27.894531 20.09375 28.214844 20.09375 28.613281 C 20.09375 29.015625 19.773438 29.332031 19.371094 29.332031 C 18.972656 29.332031 18.652344 29.015625 18.652344 28.613281 Z M 18.679688 28.613281 C 18.679688 28.996094 18.992188 29.308594 19.371094 29.308594 C 19.753906 29.308594 20.066406 28.996094 20.066406 28.613281 C 20.066406 28.230469 19.753906 27.921875 19.371094 27.921875 C 18.992188 27.921875 18.679688 28.230469 18.679688 28.613281 Z M 18.679688 28.613281 "/><path style=" stroke:none;fill-rule:nonzero;fill:#1e1e1e;fill-opacity:1;" d="M 18.980469 28.613281 C 18.980469 28.828125 19.160156 29.003906 19.371094 29.003906 C 19.585938 29.003906 19.765625 28.828125 19.765625 28.613281 C 19.765625 28.402344 19.585938 28.222656 19.371094 28.222656 C 19.152344 28.222656 18.980469 28.402344 18.980469 28.613281 Z M 18.980469 28.613281 "/><path style=" stroke:none;fill-rule:nonzero;fill:#1e1e1e;fill-opacity:1;" d="M 26.007812 28.667969 C 26.007812 28.75 25.980469 28.816406 25.921875 28.875 C 25.867188 28.933594 25.796875 28.960938 25.714844 28.960938 C 25.636719 28.960938 25.566406 28.933594 25.507812 28.875 C 25.453125 28.816406 25.421875 28.75 25.421875 28.667969 C 25.421875 28.585938 25.453125 28.515625 25.507812 28.460938 C 25.566406 28.402344 25.636719 28.375 25.714844 28.375 C 25.796875 28.375 25.867188 28.402344 25.921875 28.460938 C 25.980469 28.515625 26.007812 28.585938 26.007812 28.667969 Z M 26.007812 28.667969 "/><path style=" stroke:none;fill-rule:nonzero;fill:#1e1e1e;fill-opacity:1;" d="M 2.882812 30.746094 C 2.882812 30.835938 2.953125 30.914062 3.050781 30.914062 C 3.140625 30.914062 3.222656 30.84375 3.222656 30.746094 C 3.222656 30.65625 3.148438 30.578125 3.050781 30.578125 C 2.953125 30.578125 2.882812 30.648438 2.882812 30.746094 Z M 2.882812 30.746094 "/><path style=" stroke:none;fill-rule:nonzero;fill:#1e1e1e;fill-opacity:1;" d="M 16.449219 25.539062 C 16.449219 25.699219 16.582031 25.832031 16.742188 25.832031 C 16.902344 25.832031 17.035156 25.699219 17.035156 25.539062 C 17.035156 25.378906 16.902344 25.246094 16.742188 25.246094 C 16.582031 25.246094 16.449219 25.378906 16.449219 25.539062 Z M 16.449219 25.539062 "/><path style=" stroke:none;fill-rule:nonzero;fill:#1e1e1e;fill-opacity:1;" d="M 19.898438 31.839844 C 19.898438 31.984375 19.847656 32.109375 19.742188 32.210938 C 19.640625 32.3125 19.515625 32.363281 19.371094 32.363281 C 19.226562 32.363281 19.105469 32.3125 19.003906 32.210938 C 18.898438 32.109375 18.847656 31.984375 18.847656 31.839844 C 18.847656 31.695312 18.898438 31.570312 19.003906 31.46875 C 19.105469 31.367188 19.226562 31.316406 19.371094 31.316406 C 19.515625 31.316406 19.640625 31.367188 19.742188 31.46875 C 19.847656 31.570312 19.898438 31.695312 19.898438 31.839844 Z M 19.898438 31.839844 "/><path style=" stroke:none;fill-rule:nonzero;fill:#1e1e1e;fill-opacity:1;" d="M 38.847656 28.152344 C 38.9375 28.242188 38.980469 28.347656 38.980469 28.472656 C 38.980469 28.597656 38.9375 28.707031 38.847656 28.792969 C 38.761719 28.882812 38.652344 28.925781 38.527344 28.925781 C 38.402344 28.925781 38.296875 28.882812 38.207031 28.792969 C 38.121094 28.707031 38.074219 28.597656 38.074219 28.472656 C 38.074219 28.347656 38.121094 28.242188 38.207031 28.152344 C 38.296875 28.066406 38.402344 28.019531 38.527344 28.019531 C 38.652344 28.019531 38.761719 28.066406 38.847656 28.152344 Z M 38.847656 28.152344 "/><path style=" stroke:none;fill-rule:nonzero;fill:#1e1e1e;fill-opacity:1;" d="M 20.09375 44.027344 C 20.09375 44.222656 20.023438 44.386719 19.886719 44.523438 C 19.75 44.660156 19.585938 44.730469 19.390625 44.730469 C 19.195312 44.730469 19.03125 44.660156 18.894531 44.523438 C 18.757812 44.386719 18.6875 44.222656 18.6875 44.027344 C 18.6875 43.835938 18.757812 43.667969 18.894531 43.53125 C 19.03125 43.394531 19.195312 43.328125 19.390625 43.328125 C 19.585938 43.328125 19.75 43.394531 19.886719 43.53125 C 20.023438 43.667969 20.09375 43.835938 20.09375 44.027344 Z M 20.09375 44.027344 "/><path style=" stroke:none;fill-rule:nonzero;fill:#1e1e1e;fill-opacity:1;" d="M 31.738281 34.769531 C 31.738281 34.929688 31.871094 35.0625 32.03125 35.0625 C 32.191406 35.0625 32.324219 34.929688 32.324219 34.769531 C 32.324219 34.609375 32.191406 34.476562 32.03125 34.476562 C 31.871094 34.46875 31.738281 34.601562 31.738281 34.769531 Z M 31.738281 34.769531 "/><path style=" stroke:none;fill-rule:nonzero;fill:#1e1e1e;fill-opacity:1;" d="M 30.734375 36.371094 C 30.734375 36.503906 30.6875 36.617188 30.59375 36.710938 C 30.5 36.804688 30.386719 36.851562 30.257812 36.851562 C 30.125 36.851562 30.011719 36.804688 29.917969 36.710938 C 29.824219 36.617188 29.777344 36.503906 29.777344 36.371094 C 29.777344 36.238281 29.824219 36.125 29.917969 36.03125 C 30.011719 35.9375 30.125 35.890625 30.257812 35.890625 C 30.386719 35.890625 30.5 35.9375 30.59375 36.03125 C 30.6875 36.125 30.734375 36.238281 30.734375 36.371094 Z M 30.734375 36.371094 "/><path style=" stroke:none;fill-rule:nonzero;fill:#1e1e1e;fill-opacity:1;" d="M 44.140625 28.4375 C 44.140625 28.597656 44.273438 28.730469 44.433594 28.730469 C 44.59375 28.730469 44.726562 28.597656 44.726562 28.4375 C 44.726562 28.277344 44.59375 28.144531 44.433594 28.144531 C 44.273438 28.144531 44.140625 28.277344 44.140625 28.4375 Z M 44.140625 28.4375 "/></g><mask id="dc4684414f"><g filter="url(#d75effd108)"><rect x="0" width="187.5" y="0" height="74.999997" style="fill:#000000;fill-opacity:0.47;stroke:none;"/></g></mask></g><path style=" stroke:none;fill-rule:nonzero;fill:#1e1e1e;fill-opacity:1;" d="M 121.859375 35.527344 C 122.28125 46.644531 115.488281 57.15625 105.21875 61.523438 C 104.421875 61.863281 103.609375 62.164062 102.78125 62.425781 C 101.957031 62.691406 101.117188 62.914062 100.269531 63.101562 C 99.421875 63.285156 98.570312 63.429688 97.707031 63.539062 C 96.847656 63.644531 95.984375 63.710938 95.117188 63.738281 C 94.25 63.761719 93.382812 63.75 92.519531 63.695312 C 91.652344 63.640625 90.789062 63.546875 89.933594 63.414062 C 89.078125 63.28125 88.226562 63.105469 87.386719 62.894531 C 86.546875 62.683594 85.714844 62.429688 84.898438 62.140625 C 84.082031 61.851562 83.277344 61.527344 82.492188 61.164062 C 81.703125 60.796875 80.933594 60.398438 80.183594 59.964844 C 79.433594 59.53125 78.703125 59.0625 77.996094 58.558594 C 77.289062 58.054688 76.609375 57.523438 75.949219 56.957031 C 75.292969 56.390625 74.664062 55.796875 74.058594 55.171875 C 73.457031 54.546875 72.886719 53.898438 72.34375 53.21875 C 71.800781 52.542969 71.289062 51.84375 70.8125 51.117188 C 70.335938 50.394531 69.894531 49.648438 69.484375 48.882812 C 59.660156 30.140625 73.160156 7.644531 94.496094 8.132812 C 93.761719 8.191406 92.179688 8.316406 91.488281 8.414062 C 90.792969 8.511719 89.738281 8.746094 89.019531 8.875 C 85.59375 9.714844 82.429688 11.140625 79.527344 13.152344 C 78.523438 13.859375 77.570312 14.628906 76.667969 15.464844 C 75.769531 16.296875 74.929688 17.1875 74.148438 18.136719 C 73.371094 19.085938 72.65625 20.085938 72.015625 21.128906 C 71.371094 22.175781 70.800781 23.257812 70.304688 24.382812 C 69.808594 25.503906 69.390625 26.65625 69.050781 27.835938 C 68.710938 29.015625 68.453125 30.214844 68.277344 31.429688 C 68.097656 32.644531 68.003906 33.867188 67.996094 35.09375 C 67.984375 36.320312 68.058594 37.546875 68.210938 38.761719 C 69.582031 49.925781 78.292969 59.238281 89.308594 61.476562 C 90.589844 61.734375 91.886719 61.898438 93.195312 61.972656 C 94.503906 62.042969 95.808594 62.019531 97.113281 61.898438 C 98.417969 61.78125 99.707031 61.570312 100.980469 61.265625 C 102.253906 60.957031 103.5 60.5625 104.714844 60.078125 C 105.933594 59.589844 107.105469 59.019531 108.242188 58.363281 C 109.375 57.707031 110.453125 56.972656 111.480469 56.160156 C 112.507812 55.347656 113.472656 54.464844 114.371094 53.511719 C 115.269531 52.558594 116.09375 51.546875 116.847656 50.472656 C 118.851562 47.578125 120.277344 44.417969 121.117188 40.996094 C 121.257812 40.289062 121.425781 39.242188 121.570312 38.527344 C 121.71875 37.816406 121.777344 36.242188 121.859375 35.527344 Z M 121.859375 35.527344 "/></g></svg>