<svg xmlns="http://www.w3.org/2000/svg" xmlns:xlink="http://www.w3.org/1999/xlink" width="250" zoomAndPan="magnify" viewBox="0 0 187.5 74.999997" height="100" preserveAspectRatio="xMidYMid meet" version="1.2"><defs><clipPath id="94a0a20a41"><path d="M 0 0.101562 L 187 0.101562 L 187 74.898438 L 0 74.898438 Z M 0 0.101562 "/></clipPath><filter x="0%" y="0%" width="100%" filterUnits="objectBoundingBox" id="f14e3dbe4b" height="100%"><feColorMatrix values="0 0 0 0 1 0 0 0 0 1 0 0 0 0 1 0 0 0 1 0" type="matrix" in="SourceGraphic"/></filter><clipPath id="158465c6aa"><path d="M 45 12 L 46.753906 12 L 46.753906 22 L 45 22 Z M 45 12 "/></clipPath><clipPath id="1bfbf8abb0"><path d="M 29 0.28125 L 30 0.28125 L 30 21 L 29 21 Z M 29 0.28125 "/></clipPath><clipPath id="41d936b198"><path d="M 11 42 L 13 42 L 13 43.640625 L 11 43.640625 Z M 11 42 "/></clipPath><clipPath id="974702491d"><path d="M 45 34 L 46.753906 34 L 46.753906 36 L 45 36 Z M 45 34 "/></clipPath><clipPath id="0bb3c241fa"><path d="M 45 12 L 46.753906 12 L 46.753906 13 L 45 13 Z M 45 12 "/></clipPath><clipPath id="81db9f1d26"><path d="M 29 0.28125 L 31 0.28125 L 31 2 L 29 2 Z M 29 0.28125 "/></clipPath><clipPath id="471c2f75b0"><path d="M 45 21 L 46.753906 21 L 46.753906 22 L 45 22 Z M 45 21 "/></clipPath><clipPath id="2413014848"><path d="M 45 21 L 46.753906 21 L 46.753906 23 L 45 23 Z M 45 21 "/></clipPath><clipPath id="8d051dfa46"><path d="M 0.984375 30 L 3 30 L 3 32 L 0.984375 32 Z M 0.984375 30 "/></clipPath><clipPath id="15c66de3d1"><path d="M 19 42 L 21 42 L 21 43.640625 L 19 43.640625 Z M 19 42 "/></clipPath><clipPath id="74908084b5"><rect x="0" width="47" y="0" height="47"/></clipPath><clipPath id="f6783fa5f7"><path d="M 66 8 L 122.816406 8 L 122.816406 64 L 66 64 Z M 66 8 "/></clipPath><clipPath id="7f08638bc2"><path d="M 82.617188 23.679688 L 108 23.679688 L 108 50.179688 L 82.617188 50.179688 Z M 82.617188 23.679688 "/></clipPath></defs><g id="e21a5a8c80"><g clip-rule="nonzero" clip-path="url(#94a0a20a41)"><path style=" stroke:none;fill-rule:nonzero;fill:#ffffff;fill-opacity:1;" d="M 0 0.101562 L 187 0.101562 L 187 74.898438 L 0 74.898438 Z M 0 0.101562 "/><path style=" stroke:none;fill-rule:nonzero;fill:#1e1e1e;fill-opacity:1;" d="M 0 0.101562 L 187 0.101562 L 187 74.898438 L 0 74.898438 Z M 0 0.101562 "/></g><g mask="url(#aea4218e9e)" transform="matrix(1,0,0,1,72,13)"><g clip-path="url(#74908084b5)"><g clip-rule="nonzero" clip-path="url(#158465c6aa)"><path style=" stroke:none;fill-rule:nonzero;fill:#ffffff;fill-opacity:1;" d="M 45.964844 12.433594 L 46.007812 12.433594 L 46.007812 21.566406 L 45.964844 21.566406 Z M 45.964844 12.433594 "/></g><path style=" stroke:none;fill-rule:nonzero;fill:#ffffff;fill-opacity:1;" d="M 42.933594 6.289062 L 43.023438 6.289062 L 43.023438 24.339844 L 42.933594 24.339844 Z M 42.933594 6.289062 "/><g clip-rule="nonzero" clip-path="url(#1bfbf8abb0)"><path style=" stroke:none;fill-rule:nonzero;fill:#ffffff;fill-opacity:1;" d="M 29.644531 0.960938 L 29.734375 0.960938 L 29.734375 20.328125 L 29.644531 20.328125 Z M 29.644531 0.960938 "/></g><path style=" stroke:none;fill-rule:nonzero;fill:#ffffff;fill-opacity:1;" d="M 17.375 12.433594 L 17.421875 12.433594 L 17.421875 24.824219 L 17.375 24.824219 Z M 17.375 12.433594 "/><path style=" stroke:none;fill-rule:nonzero;fill:#ffffff;fill-opacity:1;" d="M 13.554688 2.621094 L 13.644531 2.621094 L 13.644531 20.285156 L 13.554688 20.285156 Z M 13.554688 2.621094 "/><path style=" stroke:none;fill-rule:nonzero;fill:#ffffff;fill-opacity:1;" d="M 20.019531 7.808594 L 20.066406 7.808594 L 20.066406 27.988281 L 20.019531 27.988281 Z M 20.019531 7.808594 "/><path style=" stroke:none;fill-rule:nonzero;fill:#ffffff;fill-opacity:1;" d="M 26.433594 14.691406 L 26.476562 14.691406 L 26.476562 27.902344 L 26.433594 27.902344 Z M 26.433594 14.691406 "/><path style=" stroke:none;fill-rule:nonzero;fill:#ffffff;fill-opacity:1;" d="M 34.683594 17.257812 L 34.726562 17.257812 L 34.726562 27.765625 L 34.683594 27.765625 Z M 34.683594 17.257812 "/><path style=" stroke:none;fill-rule:nonzero;fill:#ffffff;fill-opacity:1;" d="M 36.378906 11.441406 L 36.46875 11.441406 L 36.46875 30.425781 L 36.378906 30.425781 Z M 36.378906 11.441406 "/><path style=" stroke:none;fill-rule:nonzero;fill:#ffffff;fill-opacity:1;" d="M 45.328125 16.386719 L 45.371094 16.386719 L 45.371094 27.710938 L 45.328125 27.710938 Z M 45.328125 16.386719 "/><path style=" stroke:none;fill-rule:nonzero;fill:#ffffff;fill-opacity:1;" d="M 8.667969 8.726562 L 8.714844 8.726562 L 8.714844 28.082031 L 8.667969 28.082031 Z M 8.667969 8.726562 "/><path style=" stroke:none;fill-rule:nonzero;fill:#ffffff;fill-opacity:1;" d="M 3.546875 23.363281 L 3.59375 23.363281 L 3.59375 29.960938 L 3.546875 29.960938 Z M 3.546875 23.363281 "/><path style=" stroke:none;fill-rule:nonzero;fill:#ffffff;fill-opacity:1;" d="M 22.675781 20.277344 L 22.71875 20.277344 L 22.71875 29.734375 L 22.675781 29.734375 Z M 22.675781 20.277344 "/><path style=" stroke:none;fill-rule:nonzero;fill:#ffffff;fill-opacity:1;" d="M 32.828125 6.289062 L 32.871094 6.289062 L 32.871094 33.773438 L 32.828125 33.773438 Z M 32.828125 6.289062 "/><path style=" stroke:none;fill-rule:nonzero;fill:#ffffff;fill-opacity:1;" d="M 39.363281 18.0625 L 39.40625 18.0625 L 39.40625 27.722656 L 39.363281 27.722656 Z M 39.363281 18.0625 "/><path style=" stroke:none;fill-rule:nonzero;fill:#ffffff;fill-opacity:1;" d="M 11.097656 22.101562 L 11.144531 22.101562 L 11.144531 35.007812 L 11.097656 35.007812 Z M 11.097656 22.101562 "/><path style=" stroke:none;fill-rule:nonzero;fill:#ffffff;fill-opacity:1;" d="M 1.546875 16.332031 L 1.636719 16.332031 L 1.636719 30.710938 L 1.546875 30.710938 Z M 1.546875 16.332031 "/><path style=" stroke:none;fill-rule:nonzero;fill:#ffffff;fill-opacity:1;" d="M 38.628906 34.273438 C 38.628906 34.429688 38.761719 34.558594 38.925781 34.558594 C 39.085938 34.558594 39.21875 34.429688 39.21875 34.273438 C 39.21875 34.117188 39.085938 33.988281 38.925781 33.988281 C 38.761719 33.980469 38.628906 34.109375 38.628906 34.273438 Z M 38.628906 34.273438 "/><path style=" stroke:none;fill-rule:nonzero;fill:#ffffff;fill-opacity:1;" d="M 19.769531 36.800781 C 19.769531 36.953125 19.90625 37.085938 20.066406 37.085938 C 20.226562 37.085938 20.363281 36.953125 20.363281 36.800781 C 20.363281 36.644531 20.226562 36.515625 20.066406 36.515625 C 19.90625 36.515625 19.769531 36.644531 19.769531 36.800781 Z M 19.769531 36.800781 "/><path style=" stroke:none;fill-rule:nonzero;fill:#ffffff;fill-opacity:1;" d="M 23.832031 37.914062 C 23.832031 38 23.902344 38.070312 23.992188 38.070312 C 24.082031 38.070312 24.15625 38 24.15625 37.914062 C 24.15625 37.828125 24.082031 37.757812 23.992188 37.757812 C 23.902344 37.75 23.832031 37.820312 23.832031 37.914062 Z M 23.832031 37.914062 "/><g clip-rule="nonzero" clip-path="url(#41d936b198)"><path style=" stroke:none;fill-rule:nonzero;fill:#ffffff;fill-opacity:1;" d="M 12.65625 42.964844 C 12.707031 43.046875 12.71875 43.132812 12.695312 43.226562 C 12.667969 43.320312 12.613281 43.390625 12.53125 43.4375 C 12.445312 43.488281 12.355469 43.5 12.257812 43.476562 C 12.164062 43.453125 12.089844 43.402344 12.039062 43.320312 C 11.988281 43.238281 11.972656 43.148438 12 43.054688 C 12.023438 42.964844 12.078125 42.894531 12.164062 42.84375 C 12.25 42.796875 12.339844 42.78125 12.433594 42.804688 C 12.53125 42.828125 12.605469 42.882812 12.65625 42.964844 Z M 12.65625 42.964844 "/></g><path style=" stroke:none;fill-rule:nonzero;fill:#ffffff;fill-opacity:1;" d="M 39.515625 31.921875 C 39.515625 31.707031 39.695312 31.535156 39.917969 31.535156 C 40.144531 31.535156 40.324219 31.707031 40.324219 31.921875 C 40.324219 32.140625 40.144531 32.3125 39.917969 32.3125 C 39.695312 32.304688 39.515625 32.128906 39.515625 31.921875 Z M 39.570312 31.921875 C 39.570312 32.105469 39.722656 32.25 39.910156 32.25 C 40.097656 32.25 40.25 32.105469 40.25 31.921875 C 40.25 31.742188 40.097656 31.59375 39.910156 31.59375 C 39.722656 31.59375 39.570312 31.734375 39.570312 31.921875 Z M 39.570312 31.921875 "/><path style=" stroke:none;fill-rule:nonzero;fill:#ffffff;fill-opacity:1;" d="M 39.003906 38.867188 C 39.003906 38.648438 39.183594 38.476562 39.40625 38.476562 C 39.632812 38.476562 39.8125 38.648438 39.8125 38.867188 C 39.8125 39.082031 39.632812 39.253906 39.40625 39.253906 C 39.183594 39.253906 39.003906 39.074219 39.003906 38.867188 Z M 39.058594 38.867188 C 39.058594 39.046875 39.210938 39.195312 39.398438 39.195312 C 39.585938 39.195312 39.738281 39.046875 39.738281 38.867188 C 39.738281 38.683594 39.585938 38.535156 39.398438 38.535156 C 39.210938 38.535156 39.058594 38.683594 39.058594 38.867188 Z M 39.058594 38.867188 "/><path style=" stroke:none;fill-rule:nonzero;fill:#ffffff;fill-opacity:1;" d="M 24.425781 33.609375 C 24.425781 33.394531 24.601562 33.21875 24.828125 33.21875 C 25.050781 33.21875 25.230469 33.394531 25.230469 33.609375 C 25.230469 33.824219 25.050781 33.996094 24.828125 33.996094 C 24.601562 33.996094 24.425781 33.824219 24.425781 33.609375 Z M 24.476562 33.609375 C 24.476562 33.789062 24.628906 33.9375 24.820312 33.9375 C 25.007812 33.9375 25.160156 33.789062 25.160156 33.609375 C 25.160156 33.425781 25.007812 33.28125 24.820312 33.28125 C 24.628906 33.28125 24.476562 33.425781 24.476562 33.609375 Z M 24.476562 33.609375 "/><path style=" stroke:none;fill-rule:nonzero;fill:#ffffff;fill-opacity:1;" d="M 17.511719 35.164062 C 17.511719 34.949219 17.691406 34.777344 17.914062 34.777344 C 18.136719 34.777344 18.316406 34.949219 18.316406 35.164062 C 18.316406 35.382812 18.136719 35.554688 17.914062 35.554688 C 17.691406 35.546875 17.511719 35.382812 17.511719 35.164062 Z M 17.5625 35.164062 C 17.5625 35.347656 17.714844 35.492188 17.90625 35.492188 C 18.09375 35.492188 18.246094 35.347656 18.246094 35.164062 C 18.246094 34.984375 18.09375 34.835938 17.90625 34.835938 C 17.714844 34.828125 17.5625 34.984375 17.5625 35.164062 Z M 17.5625 35.164062 "/><path style=" stroke:none;fill-rule:nonzero;fill:#ffffff;fill-opacity:1;" d="M 13.816406 39.003906 C 13.816406 38.789062 13.996094 38.613281 14.21875 38.613281 C 14.445312 38.613281 14.621094 38.789062 14.621094 39.003906 C 14.621094 39.21875 14.445312 39.394531 14.21875 39.394531 C 13.996094 39.394531 13.816406 39.21875 13.816406 39.003906 Z M 13.871094 39.003906 C 13.871094 39.183594 14.023438 39.332031 14.210938 39.332031 C 14.398438 39.332031 14.550781 39.183594 14.550781 39.003906 C 14.550781 38.824219 14.398438 38.675781 14.210938 38.675781 C 14.023438 38.675781 13.871094 38.824219 13.871094 39.003906 Z M 13.871094 39.003906 "/><path style=" stroke:none;fill-rule:nonzero;fill:#ffffff;fill-opacity:1;" d="M 34.84375 31.671875 C 34.84375 31.542969 34.953125 31.429688 35.09375 31.429688 C 35.230469 31.429688 35.347656 31.535156 35.347656 31.671875 C 35.347656 31.808594 35.238281 31.914062 35.09375 31.914062 C 34.953125 31.90625 34.84375 31.800781 34.84375 31.671875 Z M 34.933594 31.671875 C 34.933594 31.757812 35.003906 31.828125 35.09375 31.828125 C 35.183594 31.828125 35.257812 31.757812 35.257812 31.671875 C 35.257812 31.585938 35.183594 31.515625 35.09375 31.515625 C 35.003906 31.515625 34.933594 31.585938 34.933594 31.671875 Z M 34.933594 31.671875 "/><g clip-rule="nonzero" clip-path="url(#974702491d)"><path style=" stroke:none;fill-rule:nonzero;fill:#ffffff;fill-opacity:1;" d="M 45.890625 35.070312 C 45.890625 34.84375 46.078125 34.65625 46.320312 34.65625 C 46.554688 34.65625 46.753906 34.835938 46.753906 35.070312 C 46.753906 35.292969 46.5625 35.484375 46.320312 35.484375 C 46.078125 35.484375 45.890625 35.304688 45.890625 35.070312 Z M 46.042969 35.070312 C 46.042969 35.21875 46.167969 35.339844 46.320312 35.339844 C 46.472656 35.339844 46.601562 35.21875 46.601562 35.070312 C 46.601562 34.921875 46.472656 34.800781 46.320312 34.800781 C 46.167969 34.800781 46.042969 34.921875 46.042969 35.070312 Z M 46.042969 35.070312 "/></g><path style=" stroke:none;fill-rule:nonzero;fill:#ffffff;fill-opacity:1;" d="M 6.03125 33.875 C 6.03125 33.667969 6.203125 33.503906 6.417969 33.503906 C 6.632812 33.503906 6.804688 33.667969 6.804688 33.875 C 6.804688 34.085938 6.632812 34.25 6.417969 34.25 C 6.203125 34.25 6.03125 34.085938 6.03125 33.875 Z M 6.167969 33.875 C 6.167969 34.007812 6.285156 34.117188 6.417969 34.117188 C 6.550781 34.117188 6.667969 34.007812 6.667969 33.875 C 6.667969 33.746094 6.550781 33.632812 6.417969 33.632812 C 6.285156 33.632812 6.167969 33.746094 6.167969 33.875 Z M 6.167969 33.875 "/><path style=" stroke:none;fill-rule:nonzero;fill:#ffffff;fill-opacity:1;" d="M 16.03125 30.0625 C 16.03125 29.855469 16.199219 29.691406 16.417969 29.691406 C 16.632812 29.691406 16.800781 29.855469 16.800781 30.0625 C 16.800781 30.269531 16.632812 30.4375 16.417969 30.4375 C 16.210938 30.4375 16.03125 30.269531 16.03125 30.0625 Z M 16.164062 30.0625 C 16.164062 30.195312 16.28125 30.304688 16.417969 30.304688 C 16.550781 30.304688 16.667969 30.195312 16.667969 30.0625 C 16.667969 29.933594 16.550781 29.820312 16.417969 29.820312 C 16.28125 29.820312 16.164062 29.933594 16.164062 30.0625 Z M 16.164062 30.0625 "/><path style=" stroke:none;fill-rule:nonzero;fill:#ffffff;fill-opacity:1;" d="M 7.449219 40.65625 C 7.449219 40.449219 7.621094 40.285156 7.835938 40.285156 C 8.050781 40.285156 8.21875 40.449219 8.21875 40.65625 C 8.21875 40.863281 8.050781 41.027344 7.835938 41.027344 C 7.628906 41.027344 7.449219 40.855469 7.449219 40.65625 Z M 7.582031 40.65625 C 7.582031 40.785156 7.699219 40.898438 7.835938 40.898438 C 7.96875 40.898438 8.085938 40.785156 8.085938 40.65625 C 8.085938 40.527344 7.96875 40.414062 7.835938 40.414062 C 7.699219 40.414062 7.582031 40.515625 7.582031 40.65625 Z M 7.582031 40.65625 "/><path style=" stroke:none;fill-rule:nonzero;fill:#ffffff;fill-opacity:1;" d="M 30.144531 27.832031 C 30.144531 27.703125 30.253906 27.589844 30.394531 27.589844 C 30.53125 27.589844 30.648438 27.695312 30.648438 27.832031 C 30.648438 27.964844 30.539062 28.074219 30.394531 28.074219 C 30.253906 28.066406 30.144531 27.964844 30.144531 27.832031 Z M 30.226562 27.832031 C 30.226562 27.917969 30.296875 27.988281 30.386719 27.988281 C 30.476562 27.988281 30.546875 27.917969 30.546875 27.832031 C 30.546875 27.746094 30.476562 27.675781 30.386719 27.675781 C 30.296875 27.675781 30.226562 27.746094 30.226562 27.832031 Z M 30.226562 27.832031 "/><path style=" stroke:none;fill-rule:nonzero;fill:#ffffff;fill-opacity:1;" d="M 45.164062 16.34375 C 45.164062 16.445312 45.246094 16.523438 45.351562 16.523438 C 45.460938 16.523438 45.542969 16.445312 45.542969 16.34375 C 45.542969 16.238281 45.460938 16.160156 45.351562 16.160156 C 45.246094 16.160156 45.164062 16.238281 45.164062 16.34375 Z M 45.164062 16.34375 "/><g clip-rule="nonzero" clip-path="url(#0bb3c241fa)"><path style=" stroke:none;fill-rule:nonzero;fill:#ffffff;fill-opacity:1;" d="M 46.285156 12.46875 C 46.285156 12.546875 46.257812 12.613281 46.199219 12.671875 C 46.140625 12.726562 46.070312 12.753906 45.988281 12.753906 C 45.910156 12.753906 45.839844 12.726562 45.78125 12.671875 C 45.722656 12.613281 45.695312 12.546875 45.695312 12.46875 C 45.695312 12.390625 45.722656 12.324219 45.78125 12.265625 C 45.839844 12.210938 45.910156 12.183594 45.988281 12.183594 C 46.070312 12.183594 46.140625 12.210938 46.199219 12.265625 C 46.257812 12.324219 46.285156 12.390625 46.285156 12.46875 Z M 46.285156 12.46875 "/></g><path style=" stroke:none;fill-rule:nonzero;fill:#ffffff;fill-opacity:1;" d="M 42.789062 6.289062 C 42.789062 6.390625 42.878906 6.46875 42.976562 6.46875 C 43.085938 6.46875 43.164062 6.382812 43.164062 6.289062 C 43.164062 6.191406 43.074219 6.105469 42.976562 6.105469 C 42.871094 6.105469 42.789062 6.191406 42.789062 6.289062 Z M 42.789062 6.289062 "/><path style=" stroke:none;fill-rule:nonzero;fill:#ffffff;fill-opacity:1;" d="M 39.175781 18.082031 C 39.175781 18.191406 39.265625 18.28125 39.382812 18.28125 C 39.496094 18.28125 39.585938 18.191406 39.585938 18.082031 C 39.585938 17.96875 39.496094 17.882812 39.382812 17.882812 C 39.265625 17.871094 39.175781 17.96875 39.175781 18.082031 Z M 39.175781 18.082031 "/><path style=" stroke:none;fill-rule:nonzero;fill:#ffffff;fill-opacity:1;" d="M 36.898438 11.355469 C 36.898438 11.480469 36.851562 11.589844 36.757812 11.679688 C 36.664062 11.765625 36.554688 11.8125 36.421875 11.8125 C 36.289062 11.8125 36.179688 11.765625 36.085938 11.679688 C 35.992188 11.589844 35.945312 11.480469 35.945312 11.355469 C 35.945312 11.226562 35.992188 11.121094 36.085938 11.03125 C 36.179688 10.941406 36.289062 10.894531 36.421875 10.894531 C 36.554688 10.894531 36.664062 10.941406 36.757812 11.03125 C 36.851562 11.121094 36.898438 11.226562 36.898438 11.355469 Z M 36.898438 11.355469 "/><path style=" stroke:none;fill-rule:nonzero;fill:#ffffff;fill-opacity:1;" d="M 32.664062 6.089844 C 32.664062 6.191406 32.746094 6.269531 32.851562 6.269531 C 32.960938 6.269531 33.042969 6.191406 33.042969 6.089844 C 33.042969 5.984375 32.960938 5.90625 32.851562 5.90625 C 32.746094 5.90625 32.664062 5.992188 32.664062 6.089844 Z M 32.664062 6.089844 "/><path style=" stroke:none;fill-rule:nonzero;fill:#ffffff;fill-opacity:1;" d="M 32.664062 2.90625 C 32.664062 3.011719 32.746094 3.089844 32.851562 3.089844 C 32.960938 3.089844 33.042969 3.011719 33.042969 2.90625 C 33.042969 2.804688 32.960938 2.726562 32.851562 2.726562 C 32.746094 2.726562 32.664062 2.804688 32.664062 2.90625 Z M 32.664062 2.90625 "/><g clip-rule="nonzero" clip-path="url(#81db9f1d26)"><path style=" stroke:none;fill-rule:nonzero;fill:#ffffff;fill-opacity:1;" d="M 30.164062 0.769531 C 30.164062 0.898438 30.117188 1.003906 30.023438 1.09375 C 29.929688 1.183594 29.820312 1.230469 29.6875 1.230469 C 29.554688 1.230469 29.445312 1.183594 29.351562 1.09375 C 29.257812 1.003906 29.210938 0.898438 29.210938 0.769531 C 29.210938 0.644531 29.257812 0.535156 29.351562 0.445312 C 29.445312 0.359375 29.554688 0.3125 29.6875 0.3125 C 29.820312 0.3125 29.929688 0.359375 30.023438 0.445312 C 30.117188 0.535156 30.164062 0.644531 30.164062 0.769531 Z M 30.164062 0.769531 "/></g><path style=" stroke:none;fill-rule:nonzero;fill:#ffffff;fill-opacity:1;" d="M 26.15625 14.839844 C 26.15625 14.992188 26.289062 15.125 26.449219 15.125 C 26.613281 15.125 26.746094 14.992188 26.746094 14.839844 C 26.746094 14.683594 26.613281 14.554688 26.449219 14.554688 C 26.289062 14.554688 26.15625 14.675781 26.15625 14.839844 Z M 26.15625 14.839844 "/><path style=" stroke:none;fill-rule:nonzero;fill:#ffffff;fill-opacity:1;" d="M 20.496094 7.808594 C 20.496094 7.929688 20.453125 8.03125 20.363281 8.113281 C 20.277344 8.199219 20.171875 8.242188 20.046875 8.242188 C 19.925781 8.242188 19.820312 8.199219 19.730469 8.113281 C 19.644531 8.03125 19.597656 7.929688 19.597656 7.808594 C 19.597656 7.691406 19.644531 7.585938 19.730469 7.503906 C 19.820312 7.417969 19.925781 7.375 20.046875 7.375 C 20.171875 7.375 20.277344 7.417969 20.363281 7.503906 C 20.453125 7.585938 20.496094 7.691406 20.496094 7.808594 Z M 20.496094 7.808594 "/><path style=" stroke:none;fill-rule:nonzero;fill:#ffffff;fill-opacity:1;" d="M 13.304688 2.621094 C 13.304688 2.777344 13.4375 2.90625 13.601562 2.90625 C 13.761719 2.90625 13.894531 2.777344 13.894531 2.621094 C 13.894531 2.464844 13.761719 2.335938 13.601562 2.335938 C 13.4375 2.328125 13.304688 2.457031 13.304688 2.621094 Z M 13.304688 2.621094 "/><path style=" stroke:none;fill-rule:nonzero;fill:#ffffff;fill-opacity:1;" d="M 8.949219 8.425781 C 9.019531 8.492188 9.058594 8.578125 9.058594 8.675781 C 9.058594 8.773438 9.019531 8.855469 8.949219 8.925781 C 8.878906 8.996094 8.792969 9.03125 8.691406 9.03125 C 8.589844 9.03125 8.5 8.996094 8.429688 8.925781 C 8.359375 8.855469 8.320312 8.773438 8.320312 8.675781 C 8.320312 8.578125 8.359375 8.492188 8.429688 8.425781 C 8.5 8.355469 8.589844 8.320312 8.691406 8.320312 C 8.792969 8.320312 8.878906 8.355469 8.949219 8.425781 Z M 8.949219 8.425781 "/><path style=" stroke:none;fill-rule:nonzero;fill:#ffffff;fill-opacity:1;" d="M 8.535156 4.878906 C 8.535156 4.964844 8.605469 5.035156 8.695312 5.035156 C 8.785156 5.035156 8.855469 4.964844 8.855469 4.878906 C 8.855469 4.792969 8.785156 4.722656 8.695312 4.722656 C 8.605469 4.722656 8.535156 4.792969 8.535156 4.878906 Z M 8.535156 4.878906 "/><path style=" stroke:none;fill-rule:nonzero;fill:#ffffff;fill-opacity:1;" d="M 1.289062 16.429688 C 1.289062 16.585938 1.421875 16.714844 1.585938 16.714844 C 1.746094 16.714844 1.878906 16.585938 1.878906 16.429688 C 1.878906 16.273438 1.746094 16.144531 1.585938 16.144531 C 1.421875 16.144531 1.289062 16.273438 1.289062 16.429688 Z M 1.289062 16.429688 "/><path style=" stroke:none;fill-rule:nonzero;fill:#ffffff;fill-opacity:1;" d="M 3.441406 23.355469 C 3.441406 23.421875 3.503906 23.484375 3.574219 23.484375 C 3.648438 23.484375 3.710938 23.421875 3.710938 23.355469 C 3.710938 23.285156 3.648438 23.226562 3.574219 23.226562 C 3.503906 23.226562 3.441406 23.285156 3.441406 23.355469 Z M 3.441406 23.355469 "/><path style=" stroke:none;fill-rule:nonzero;fill:#ffffff;fill-opacity:1;" d="M 3.710938 19.472656 C 3.710938 19.558594 3.664062 19.601562 3.574219 19.601562 C 3.484375 19.601562 3.441406 19.558594 3.441406 19.472656 C 3.441406 19.386719 3.484375 19.34375 3.574219 19.34375 C 3.664062 19.34375 3.710938 19.386719 3.710938 19.472656 Z M 3.710938 19.472656 "/><path style=" stroke:none;fill-rule:nonzero;fill:#ffffff;fill-opacity:1;" d="M 3.441406 12.433594 C 3.441406 12.503906 3.503906 12.5625 3.574219 12.5625 C 3.648438 12.5625 3.710938 12.503906 3.710938 12.433594 C 3.710938 12.367188 3.648438 12.304688 3.574219 12.304688 C 3.503906 12.304688 3.441406 12.367188 3.441406 12.433594 Z M 3.441406 12.433594 "/><path style=" stroke:none;fill-rule:nonzero;fill:#ffffff;fill-opacity:1;" d="M 10.820312 21.972656 C 10.820312 22.125 10.957031 22.257812 11.117188 22.257812 C 11.277344 22.257812 11.414062 22.125 11.414062 21.972656 C 11.414062 21.816406 11.277344 21.6875 11.117188 21.6875 C 10.945312 21.6875 10.820312 21.816406 10.820312 21.972656 Z M 10.820312 21.972656 "/><path style=" stroke:none;fill-rule:nonzero;fill:#ffffff;fill-opacity:1;" d="M 10.820312 15.988281 C 10.820312 16.144531 10.957031 16.273438 11.117188 16.273438 C 11.277344 16.273438 11.414062 16.144531 11.414062 15.988281 C 11.414062 15.832031 11.277344 15.703125 11.117188 15.703125 C 10.945312 15.703125 10.820312 15.824219 10.820312 15.988281 Z M 10.820312 15.988281 "/><path style=" stroke:none;fill-rule:nonzero;fill:#ffffff;fill-opacity:1;" d="M 18.167969 12.289062 C 18.210938 12.492188 18.171875 12.683594 18.050781 12.855469 C 17.929688 13.027344 17.761719 13.132812 17.550781 13.171875 C 17.339844 13.210938 17.144531 13.171875 16.964844 13.054688 C 16.789062 12.941406 16.679688 12.78125 16.636719 12.574219 C 16.597656 12.371094 16.636719 12.183594 16.757812 12.011719 C 16.878906 11.839844 17.042969 11.734375 17.253906 11.695312 C 17.464844 11.65625 17.660156 11.691406 17.839844 11.808594 C 18.019531 11.925781 18.128906 12.085938 18.167969 12.289062 Z M 18.167969 12.289062 "/><path style=" stroke:none;fill-rule:nonzero;fill:#ffffff;fill-opacity:1;" d="M 22.53125 20.148438 C 22.53125 20.234375 22.605469 20.300781 22.691406 20.300781 C 22.78125 20.300781 22.855469 20.234375 22.855469 20.148438 C 22.855469 20.058594 22.78125 19.992188 22.691406 19.992188 C 22.613281 19.992188 22.53125 20.058594 22.53125 20.148438 Z M 22.53125 20.148438 "/><path style=" stroke:none;fill-rule:nonzero;fill:#ffffff;fill-opacity:1;" d="M 22.53125 12.761719 C 22.53125 12.851562 22.605469 12.917969 22.691406 12.917969 C 22.78125 12.917969 22.855469 12.851562 22.855469 12.761719 C 22.855469 12.675781 22.78125 12.609375 22.691406 12.609375 C 22.613281 12.609375 22.53125 12.675781 22.53125 12.761719 Z M 22.53125 12.761719 "/><path style=" stroke:none;fill-rule:nonzero;fill:#ffffff;fill-opacity:1;" d="M 34.53125 17.171875 C 34.53125 17.269531 34.609375 17.34375 34.710938 17.34375 C 34.808594 17.34375 34.890625 17.269531 34.890625 17.171875 C 34.890625 17.078125 34.808594 17 34.710938 17 C 34.601562 17 34.53125 17.078125 34.53125 17.171875 Z M 34.53125 17.171875 "/><path style=" stroke:none;fill-rule:nonzero;fill:#ffffff;fill-opacity:1;" d="M 34.53125 14.378906 C 34.53125 14.476562 34.609375 14.554688 34.710938 14.554688 C 34.808594 14.554688 34.890625 14.476562 34.890625 14.378906 C 34.890625 14.285156 34.808594 14.207031 34.710938 14.207031 C 34.601562 14.207031 34.53125 14.285156 34.53125 14.378906 Z M 34.53125 14.378906 "/><g clip-rule="nonzero" clip-path="url(#471c2f75b0)"><path style=" stroke:none;fill-rule:nonzero;fill:#ffffff;fill-opacity:1;" d="M 45.746094 21.539062 C 45.746094 21.667969 45.855469 21.765625 45.980469 21.765625 C 46.105469 21.765625 46.214844 21.660156 46.214844 21.539062 C 46.214844 21.410156 46.105469 21.3125 45.980469 21.3125 C 45.855469 21.3125 45.746094 21.417969 45.746094 21.539062 Z M 45.746094 21.539062 "/></g><g clip-rule="nonzero" clip-path="url(#2413014848)"><path style=" stroke:none;fill-rule:nonzero;fill:#ffffff;fill-opacity:1;" d="M 45.503906 21.539062 C 45.503906 21.28125 45.722656 21.070312 45.988281 21.070312 C 46.257812 21.070312 46.472656 21.28125 46.472656 21.539062 C 46.472656 21.796875 46.257812 22.003906 45.988281 22.003906 C 45.722656 22.003906 45.503906 21.796875 45.503906 21.539062 Z M 45.53125 21.539062 C 45.53125 21.78125 45.738281 21.980469 45.988281 21.980469 C 46.242188 21.980469 46.449219 21.78125 46.449219 21.539062 C 46.449219 21.296875 46.242188 21.097656 45.988281 21.097656 C 45.738281 21.105469 45.53125 21.296875 45.53125 21.539062 Z M 45.53125 21.539062 "/></g><path style=" stroke:none;fill-rule:nonzero;fill:#ffffff;fill-opacity:1;" d="M 4.945312 38.875 C 4.945312 39 4.902344 39.105469 4.8125 39.191406 C 4.71875 39.28125 4.609375 39.324219 4.480469 39.324219 C 4.351562 39.324219 4.242188 39.28125 4.152344 39.191406 C 4.058594 39.105469 4.015625 39 4.015625 38.875 C 4.015625 38.75 4.058594 38.644531 4.152344 38.554688 C 4.242188 38.46875 4.351562 38.425781 4.480469 38.425781 C 4.609375 38.425781 4.71875 38.46875 4.8125 38.554688 C 4.902344 38.644531 4.945312 38.75 4.945312 38.875 Z M 4.945312 38.875 "/><path style=" stroke:none;fill-rule:nonzero;fill:#ffffff;fill-opacity:1;" d="M 3.53125 38.875 C 3.53125 38.363281 3.960938 37.957031 4.480469 37.957031 C 5.011719 37.957031 5.429688 38.371094 5.429688 38.875 C 5.429688 39.382812 5 39.789062 4.480469 39.789062 C 3.953125 39.789062 3.53125 39.375 3.53125 38.875 Z M 3.585938 38.875 C 3.585938 39.351562 3.988281 39.738281 4.480469 39.738281 C 4.972656 39.738281 5.378906 39.351562 5.378906 38.875 C 5.378906 38.398438 4.972656 38.007812 4.480469 38.007812 C 3.988281 38.007812 3.585938 38.398438 3.585938 38.875 Z M 3.585938 38.875 "/><path style=" stroke:none;fill-rule:nonzero;fill:#ffffff;fill-opacity:1;" d="M 43.902344 36.53125 C 43.902344 36.601562 43.875 36.664062 43.820312 36.714844 C 43.769531 36.765625 43.707031 36.789062 43.632812 36.789062 C 43.558594 36.789062 43.492188 36.765625 43.441406 36.714844 C 43.390625 36.664062 43.363281 36.601562 43.363281 36.53125 C 43.363281 36.460938 43.390625 36.398438 43.441406 36.347656 C 43.492188 36.296875 43.558594 36.273438 43.632812 36.273438 C 43.707031 36.273438 43.769531 36.296875 43.820312 36.347656 C 43.875 36.398438 43.902344 36.460938 43.902344 36.53125 Z M 43.902344 36.53125 "/><path style=" stroke:none;fill-rule:nonzero;fill:#ffffff;fill-opacity:1;" d="M 43.085938 36.53125 C 43.085938 36.238281 43.328125 36.003906 43.632812 36.003906 C 43.9375 36.003906 44.179688 36.238281 44.179688 36.53125 C 44.179688 36.824219 43.9375 37.058594 43.632812 37.058594 C 43.328125 37.066406 43.085938 36.824219 43.085938 36.53125 Z M 43.121094 36.53125 C 43.121094 36.808594 43.355469 37.03125 43.640625 37.03125 C 43.925781 37.03125 44.160156 36.808594 44.160156 36.53125 C 44.160156 36.253906 43.925781 36.03125 43.640625 36.03125 C 43.34375 36.039062 43.121094 36.261719 43.121094 36.53125 Z M 43.121094 36.53125 "/><path style=" stroke:none;fill-rule:nonzero;fill:#ffffff;fill-opacity:1;" d="M 34.46875 27.773438 C 34.46875 27.902344 34.574219 27.996094 34.699219 27.996094 C 34.824219 27.996094 34.933594 27.894531 34.933594 27.773438 C 34.933594 27.652344 34.824219 27.546875 34.699219 27.546875 C 34.574219 27.546875 34.46875 27.652344 34.46875 27.773438 Z M 34.46875 27.773438 "/><path style=" stroke:none;fill-rule:nonzero;fill:#ffffff;fill-opacity:1;" d="M 34.214844 27.773438 C 34.214844 27.511719 34.429688 27.304688 34.699219 27.304688 C 34.96875 27.304688 35.183594 27.511719 35.183594 27.773438 C 35.183594 28.03125 34.96875 28.238281 34.699219 28.238281 C 34.429688 28.238281 34.214844 28.03125 34.214844 27.773438 Z M 34.242188 27.773438 C 34.242188 28.015625 34.449219 28.214844 34.699219 28.214844 C 34.953125 28.214844 35.15625 28.015625 35.15625 27.773438 C 35.15625 27.53125 34.953125 27.332031 34.699219 27.332031 C 34.449219 27.339844 34.242188 27.53125 34.242188 27.773438 Z M 34.242188 27.773438 "/><path style=" stroke:none;fill-rule:nonzero;fill:#ffffff;fill-opacity:1;" d="M 37.167969 38.007812 C 37.167969 38.140625 37.273438 38.234375 37.398438 38.234375 C 37.535156 38.234375 37.632812 38.128906 37.632812 38.007812 C 37.632812 37.878906 37.523438 37.785156 37.398438 37.785156 C 37.273438 37.785156 37.167969 37.886719 37.167969 38.007812 Z M 37.167969 38.007812 "/><path style=" stroke:none;fill-rule:nonzero;fill:#ffffff;fill-opacity:1;" d="M 36.914062 38.007812 C 36.914062 37.75 37.128906 37.542969 37.398438 37.542969 C 37.667969 37.542969 37.882812 37.75 37.882812 38.007812 C 37.882812 38.269531 37.667969 38.476562 37.398438 38.476562 C 37.140625 38.476562 36.914062 38.269531 36.914062 38.007812 Z M 36.949219 38.007812 C 36.949219 38.25 37.15625 38.449219 37.410156 38.449219 C 37.660156 38.449219 37.867188 38.25 37.867188 38.007812 C 37.867188 37.765625 37.660156 37.570312 37.410156 37.570312 C 37.148438 37.578125 36.949219 37.765625 36.949219 38.007812 Z M 36.949219 38.007812 "/><path style=" stroke:none;fill-rule:nonzero;fill:#ffffff;fill-opacity:1;" d="M 23 41.824219 C 23 41.953125 23.105469 42.046875 23.230469 42.046875 C 23.355469 42.046875 23.464844 41.945312 23.464844 41.824219 C 23.464844 41.703125 23.355469 41.597656 23.230469 41.597656 C 23.105469 41.597656 23 41.703125 23 41.824219 Z M 23 41.824219 "/><path style=" stroke:none;fill-rule:nonzero;fill:#ffffff;fill-opacity:1;" d="M 22.746094 41.824219 C 22.746094 41.5625 22.960938 41.355469 23.230469 41.355469 C 23.5 41.355469 23.714844 41.5625 23.714844 41.824219 C 23.714844 42.082031 23.5 42.289062 23.230469 42.289062 C 22.960938 42.289062 22.746094 42.082031 22.746094 41.824219 Z M 22.773438 41.824219 C 22.773438 42.066406 22.980469 42.261719 23.230469 42.261719 C 23.480469 42.261719 23.6875 42.066406 23.6875 41.824219 C 23.6875 41.582031 23.480469 41.382812 23.230469 41.382812 C 22.980469 41.390625 22.773438 41.582031 22.773438 41.824219 Z M 22.773438 41.824219 "/><path style=" stroke:none;fill-rule:nonzero;fill:#ffffff;fill-opacity:1;" d="M 42.816406 24.296875 C 42.816406 24.382812 42.886719 24.453125 42.976562 24.453125 C 43.066406 24.453125 43.136719 24.382812 43.136719 24.296875 C 43.136719 24.210938 43.066406 24.140625 42.976562 24.140625 C 42.886719 24.140625 42.816406 24.210938 42.816406 24.296875 Z M 42.816406 24.296875 "/><path style=" stroke:none;fill-rule:nonzero;fill:#ffffff;fill-opacity:1;" d="M 42.3125 24.296875 C 42.3125 23.941406 42.609375 23.65625 42.976562 23.65625 C 43.34375 23.65625 43.640625 23.941406 43.640625 24.296875 C 43.640625 24.652344 43.34375 24.9375 42.976562 24.9375 C 42.609375 24.9375 42.3125 24.644531 42.3125 24.296875 Z M 42.347656 24.296875 C 42.347656 24.625 42.628906 24.902344 42.976562 24.902344 C 43.316406 24.902344 43.605469 24.632812 43.605469 24.296875 C 43.605469 23.960938 43.328125 23.691406 42.976562 23.691406 C 42.628906 23.691406 42.347656 23.960938 42.347656 24.296875 Z M 42.347656 24.296875 "/><path style=" stroke:none;fill-rule:nonzero;fill:#ffffff;fill-opacity:1;" d="M 36.171875 30.417969 C 36.171875 30.546875 36.289062 30.660156 36.421875 30.660156 C 36.554688 30.660156 36.671875 30.546875 36.671875 30.417969 C 36.671875 30.289062 36.554688 30.175781 36.421875 30.175781 C 36.289062 30.175781 36.171875 30.289062 36.171875 30.417969 Z M 36.171875 30.417969 "/><path style=" stroke:none;fill-rule:nonzero;fill:#ffffff;fill-opacity:1;" d="M 35.371094 30.417969 C 35.371094 29.855469 35.847656 29.40625 36.421875 29.40625 C 36.996094 29.40625 37.472656 29.863281 37.472656 30.417969 C 37.472656 30.980469 36.996094 31.429688 36.421875 31.429688 C 35.847656 31.429688 35.371094 30.980469 35.371094 30.417969 Z M 35.4375 30.417969 C 35.4375 30.945312 35.882812 31.371094 36.421875 31.371094 C 36.960938 31.371094 37.410156 30.9375 37.410156 30.417969 C 37.410156 29.890625 36.960938 29.46875 36.421875 29.46875 C 35.882812 29.46875 35.4375 29.890625 35.4375 30.417969 Z M 35.4375 30.417969 "/><path style=" stroke:none;fill-rule:nonzero;fill:#ffffff;fill-opacity:1;" d="M 35.121094 41.097656 C 35.121094 41.226562 35.238281 41.339844 35.371094 41.339844 C 35.507812 41.339844 35.625 41.226562 35.625 41.097656 C 35.625 40.964844 35.507812 40.855469 35.371094 40.855469 C 35.230469 40.855469 35.121094 40.957031 35.121094 41.097656 Z M 35.121094 41.097656 "/><path style=" stroke:none;fill-rule:nonzero;fill:#ffffff;fill-opacity:1;" d="M 34.316406 41.097656 C 34.316406 40.535156 34.789062 40.085938 35.363281 40.085938 C 35.945312 40.085938 36.414062 40.542969 36.414062 41.097656 C 36.414062 41.660156 35.9375 42.109375 35.363281 42.109375 C 34.789062 42.109375 34.316406 41.660156 34.316406 41.097656 Z M 34.378906 41.097656 C 34.378906 41.625 34.824219 42.046875 35.363281 42.046875 C 35.910156 42.046875 36.351562 41.613281 36.351562 41.097656 C 36.351562 40.578125 35.902344 40.144531 35.363281 40.144531 C 34.824219 40.136719 34.378906 40.570312 34.378906 41.097656 Z M 34.378906 41.097656 "/><path style=" stroke:none;fill-rule:nonzero;fill:#ffffff;fill-opacity:1;" d="M 29.625 39.558594 C 29.625 39.6875 29.734375 39.789062 29.867188 39.789062 C 30 39.789062 30.109375 39.6875 30.109375 39.558594 C 30.109375 39.425781 30 39.324219 29.867188 39.324219 C 29.734375 39.324219 29.625 39.425781 29.625 39.558594 Z M 29.625 39.558594 "/><path style=" stroke:none;fill-rule:nonzero;fill:#ffffff;fill-opacity:1;" d="M 28.855469 39.558594 C 28.855469 39.019531 29.300781 38.589844 29.859375 38.589844 C 30.414062 38.589844 30.863281 39.019531 30.863281 39.558594 C 30.863281 40.09375 30.414062 40.527344 29.859375 40.527344 C 29.3125 40.527344 28.855469 40.09375 28.855469 39.558594 Z M 28.917969 39.558594 C 28.917969 40.058594 29.339844 40.472656 29.867188 40.472656 C 30.394531 40.472656 30.816406 40.066406 30.816406 39.558594 C 30.816406 39.054688 30.394531 38.640625 29.867188 38.640625 C 29.339844 38.640625 28.917969 39.054688 28.917969 39.558594 Z M 28.917969 39.558594 "/><path style=" stroke:none;fill-rule:nonzero;fill:#ffffff;fill-opacity:1;" d="M 8.445312 28.050781 C 8.445312 28.179688 8.550781 28.28125 8.6875 28.28125 C 8.820312 28.28125 8.929688 28.179688 8.929688 28.050781 C 8.929688 27.917969 8.820312 27.816406 8.6875 27.816406 C 8.550781 27.816406 8.445312 27.917969 8.445312 28.050781 Z M 8.445312 28.050781 "/><path style=" stroke:none;fill-rule:nonzero;fill:#ffffff;fill-opacity:1;" d="M 7.671875 28.050781 C 7.671875 27.511719 8.121094 27.082031 8.675781 27.082031 C 9.234375 27.082031 9.683594 27.511719 9.683594 28.050781 C 9.683594 28.585938 9.234375 29.019531 8.675781 29.019531 C 8.128906 29.019531 7.671875 28.585938 7.671875 28.050781 Z M 7.734375 28.050781 C 7.734375 28.550781 8.15625 28.964844 8.6875 28.964844 C 9.207031 28.964844 9.636719 28.558594 9.636719 28.050781 C 9.636719 27.546875 9.214844 27.132812 8.6875 27.132812 C 8.15625 27.132812 7.734375 27.539062 7.734375 28.050781 Z M 7.734375 28.050781 "/><path style=" stroke:none;fill-rule:nonzero;fill:#ffffff;fill-opacity:1;" d="M 13.367188 20.300781 C 13.367188 20.433594 13.476562 20.535156 13.609375 20.535156 C 13.742188 20.535156 13.851562 20.433594 13.851562 20.300781 C 13.851562 20.171875 13.742188 20.070312 13.609375 20.070312 C 13.476562 20.070312 13.367188 20.171875 13.367188 20.300781 Z M 13.367188 20.300781 "/><path style=" stroke:none;fill-rule:nonzero;fill:#ffffff;fill-opacity:1;" d="M 12.597656 20.300781 C 12.597656 19.765625 13.042969 19.335938 13.601562 19.335938 C 14.15625 19.335938 14.605469 19.765625 14.605469 20.300781 C 14.605469 20.839844 14.15625 21.269531 13.601562 21.269531 C 13.042969 21.269531 12.597656 20.839844 12.597656 20.300781 Z M 12.660156 20.300781 C 12.660156 20.804688 13.082031 21.21875 13.609375 21.21875 C 14.128906 21.21875 14.558594 20.8125 14.558594 20.300781 C 14.558594 19.800781 14.136719 19.386719 13.609375 19.386719 C 13.082031 19.394531 12.660156 19.800781 12.660156 20.300781 Z M 12.660156 20.300781 "/><path style=" stroke:none;fill-rule:nonzero;fill:#ffffff;fill-opacity:1;" d="M 1.441406 30.679688 C 1.441406 30.753906 1.503906 30.816406 1.585938 30.816406 C 1.664062 30.816406 1.726562 30.753906 1.726562 30.679688 C 1.726562 30.601562 1.664062 30.539062 1.585938 30.539062 C 1.511719 30.539062 1.441406 30.601562 1.441406 30.679688 Z M 1.441406 30.679688 "/><g clip-rule="nonzero" clip-path="url(#8d051dfa46)"><path style=" stroke:none;fill-rule:nonzero;fill:#ffffff;fill-opacity:1;" d="M 0.984375 30.679688 C 0.984375 30.359375 1.253906 30.089844 1.59375 30.089844 C 1.925781 30.089844 2.203125 30.347656 2.203125 30.679688 C 2.203125 30.996094 1.933594 31.265625 1.59375 31.265625 C 1.253906 31.257812 0.984375 30.996094 0.984375 30.679688 Z M 1.019531 30.679688 C 1.019531 30.980469 1.269531 31.222656 1.585938 31.222656 C 1.898438 31.222656 2.148438 30.980469 2.148438 30.679688 C 2.148438 30.375 1.898438 30.132812 1.585938 30.132812 C 1.28125 30.125 1.019531 30.375 1.019531 30.679688 Z M 1.019531 30.679688 "/></g><path style=" stroke:none;fill-rule:nonzero;fill:#ffffff;fill-opacity:1;" d="M 22.539062 29.734375 C 22.539062 29.820312 22.613281 29.890625 22.703125 29.890625 C 22.792969 29.890625 22.863281 29.820312 22.863281 29.734375 C 22.863281 29.648438 22.792969 29.578125 22.703125 29.578125 C 22.613281 29.578125 22.539062 29.648438 22.539062 29.734375 Z M 22.539062 29.734375 "/><path style=" stroke:none;fill-rule:nonzero;fill:#ffffff;fill-opacity:1;" d="M 22.019531 29.734375 C 22.019531 29.371094 22.324219 29.078125 22.703125 29.078125 C 23.078125 29.078125 23.382812 29.371094 23.382812 29.734375 C 23.382812 30.097656 23.078125 30.390625 22.703125 30.390625 C 22.324219 30.390625 22.019531 30.097656 22.019531 29.734375 Z M 22.066406 29.734375 C 22.066406 30.074219 22.351562 30.347656 22.703125 30.347656 C 23.050781 30.347656 23.339844 30.074219 23.339844 29.734375 C 23.339844 29.398438 23.050781 29.121094 22.703125 29.121094 C 22.34375 29.121094 22.066406 29.398438 22.066406 29.734375 Z M 22.066406 29.734375 "/><path style=" stroke:none;fill-rule:nonzero;fill:#ffffff;fill-opacity:1;" d="M 10.140625 35.007812 C 10.140625 34.492188 10.578125 34.066406 11.117188 34.066406 C 11.65625 34.066406 12.09375 34.492188 12.09375 35.007812 C 12.09375 35.527344 11.65625 35.953125 11.117188 35.953125 C 10.578125 35.953125 10.140625 35.527344 10.140625 35.007812 Z M 10.175781 35.007812 C 10.175781 35.511719 10.597656 35.917969 11.117188 35.917969 C 11.636719 35.917969 12.058594 35.511719 12.058594 35.007812 C 12.058594 34.507812 11.636719 34.101562 11.117188 34.101562 C 10.597656 34.101562 10.175781 34.507812 10.175781 35.007812 Z M 10.175781 35.007812 "/><path style=" stroke:none;fill-rule:nonzero;fill:#ffffff;fill-opacity:1;" d="M 9.824219 35.007812 C 9.824219 34.328125 10.410156 33.765625 11.117188 33.765625 C 11.824219 33.765625 12.40625 34.328125 12.40625 35.007812 C 12.40625 35.691406 11.824219 36.253906 11.117188 36.253906 C 10.410156 36.253906 9.824219 35.699219 9.824219 35.007812 Z M 9.871094 35.007812 C 9.871094 35.667969 10.425781 36.210938 11.117188 36.210938 C 11.808594 36.210938 12.363281 35.675781 12.363281 35.007812 C 12.363281 34.34375 11.808594 33.808594 11.117188 33.808594 C 10.425781 33.808594 9.871094 34.351562 9.871094 35.007812 Z M 9.871094 35.007812 "/><path style=" stroke:none;fill-rule:nonzero;fill:#ffffff;fill-opacity:1;" d="M 11.816406 35.007812 C 11.816406 35.195312 11.746094 35.355469 11.609375 35.484375 C 11.476562 35.617188 11.308594 35.683594 11.117188 35.683594 C 10.921875 35.683594 10.757812 35.617188 10.621094 35.484375 C 10.484375 35.355469 10.417969 35.195312 10.417969 35.007812 C 10.417969 34.824219 10.484375 34.664062 10.621094 34.53125 C 10.757812 34.402344 10.921875 34.335938 11.117188 34.335938 C 11.308594 34.335938 11.476562 34.402344 11.609375 34.53125 C 11.746094 34.664062 11.816406 34.824219 11.816406 35.007812 Z M 11.816406 35.007812 "/><path style=" stroke:none;fill-rule:nonzero;fill:#ffffff;fill-opacity:1;" d="M 29.300781 20.207031 C 29.300781 20 29.472656 19.835938 29.6875 19.835938 C 29.902344 19.835938 30.074219 20 30.074219 20.207031 C 30.074219 20.414062 29.902344 20.578125 29.6875 20.578125 C 29.472656 20.570312 29.300781 20.40625 29.300781 20.207031 Z M 29.320312 20.207031 C 29.320312 20.40625 29.480469 20.5625 29.6875 20.5625 C 29.894531 20.5625 30.054688 20.40625 30.054688 20.207031 C 30.054688 20.007812 29.894531 19.851562 29.6875 19.851562 C 29.480469 19.84375 29.320312 20.007812 29.320312 20.207031 Z M 29.320312 20.207031 "/><path style=" stroke:none;fill-rule:nonzero;fill:#ffffff;fill-opacity:1;" d="M 29.183594 20.207031 C 29.183594 19.9375 29.410156 19.722656 29.6875 19.722656 C 29.964844 19.722656 30.191406 19.9375 30.191406 20.207031 C 30.191406 20.476562 29.964844 20.691406 29.6875 20.691406 C 29.410156 20.691406 29.183594 20.476562 29.183594 20.207031 Z M 29.203125 20.207031 C 29.203125 20.464844 29.417969 20.675781 29.6875 20.675781 C 29.957031 20.675781 30.171875 20.464844 30.171875 20.207031 C 30.171875 19.949219 29.957031 19.742188 29.6875 19.742188 C 29.417969 19.742188 29.203125 19.949219 29.203125 20.207031 Z M 29.203125 20.207031 "/><path style=" stroke:none;fill-rule:nonzero;fill:#ffffff;fill-opacity:1;" d="M 29.410156 20.207031 C 29.410156 20.355469 29.535156 20.476562 29.6875 20.476562 C 29.839844 20.476562 29.964844 20.355469 29.964844 20.207031 C 29.964844 20.058594 29.839844 19.9375 29.6875 19.9375 C 29.535156 19.9375 29.410156 20.058594 29.410156 20.207031 Z M 29.410156 20.207031 "/><path style=" stroke:none;fill-rule:nonzero;fill:#ffffff;fill-opacity:1;" d="M 19.5 27.859375 C 19.5 27.566406 19.753906 27.332031 20.046875 27.332031 C 20.351562 27.332031 20.59375 27.574219 20.59375 27.859375 C 20.59375 28.152344 20.34375 28.386719 20.046875 28.386719 C 19.742188 28.394531 19.5 28.152344 19.5 27.859375 Z M 19.519531 27.859375 C 19.519531 28.144531 19.761719 28.371094 20.046875 28.371094 C 20.34375 28.371094 20.578125 28.136719 20.578125 27.859375 C 20.578125 27.574219 20.335938 27.347656 20.046875 27.347656 C 19.753906 27.347656 19.519531 27.582031 19.519531 27.859375 Z M 19.519531 27.859375 "/><path style=" stroke:none;fill-rule:nonzero;fill:#ffffff;fill-opacity:1;" d="M 19.320312 27.859375 C 19.320312 27.46875 19.644531 27.160156 20.046875 27.160156 C 20.453125 27.160156 20.773438 27.46875 20.773438 27.859375 C 20.773438 28.25 20.453125 28.558594 20.046875 28.558594 C 19.644531 28.558594 19.320312 28.25 19.320312 27.859375 Z M 19.347656 27.859375 C 19.347656 28.230469 19.664062 28.535156 20.046875 28.535156 C 20.433594 28.535156 20.746094 28.230469 20.746094 27.859375 C 20.746094 27.488281 20.433594 27.183594 20.046875 27.183594 C 19.664062 27.183594 19.347656 27.488281 19.347656 27.859375 Z M 19.347656 27.859375 "/><path style=" stroke:none;fill-rule:nonzero;fill:#ffffff;fill-opacity:1;" d="M 19.652344 27.859375 C 19.652344 28.066406 19.832031 28.238281 20.046875 28.238281 C 20.261719 28.238281 20.441406 28.066406 20.441406 27.859375 C 20.441406 27.652344 20.261719 27.480469 20.046875 27.480469 C 19.824219 27.480469 19.652344 27.652344 19.652344 27.859375 Z M 19.652344 27.859375 "/><path style=" stroke:none;fill-rule:nonzero;fill:#ffffff;fill-opacity:1;" d="M 26.746094 27.910156 C 26.746094 27.988281 26.71875 28.058594 26.660156 28.113281 C 26.601562 28.167969 26.53125 28.195312 26.449219 28.195312 C 26.367188 28.195312 26.300781 28.167969 26.242188 28.113281 C 26.183594 28.058594 26.15625 27.988281 26.15625 27.910156 C 26.15625 27.832031 26.183594 27.765625 26.242188 27.710938 C 26.300781 27.652344 26.367188 27.625 26.449219 27.625 C 26.53125 27.625 26.601562 27.652344 26.660156 27.710938 C 26.71875 27.765625 26.746094 27.832031 26.746094 27.910156 Z M 26.746094 27.910156 "/><path style=" stroke:none;fill-rule:nonzero;fill:#ffffff;fill-opacity:1;" d="M 3.40625 29.933594 C 3.40625 30.019531 3.476562 30.097656 3.574219 30.097656 C 3.664062 30.097656 3.746094 30.03125 3.746094 29.933594 C 3.746094 29.847656 3.675781 29.769531 3.574219 29.769531 C 3.476562 29.769531 3.40625 29.839844 3.40625 29.933594 Z M 3.40625 29.933594 "/><path style=" stroke:none;fill-rule:nonzero;fill:#ffffff;fill-opacity:1;" d="M 17.097656 24.867188 C 17.097656 25.023438 17.230469 25.152344 17.394531 25.152344 C 17.554688 25.152344 17.691406 25.023438 17.691406 24.867188 C 17.691406 24.710938 17.554688 24.582031 17.394531 24.582031 C 17.230469 24.582031 17.097656 24.710938 17.097656 24.867188 Z M 17.097656 24.867188 "/><path style=" stroke:none;fill-rule:nonzero;fill:#ffffff;fill-opacity:1;" d="M 20.578125 30.996094 C 20.578125 31.136719 20.523438 31.257812 20.421875 31.359375 C 20.320312 31.457031 20.195312 31.507812 20.046875 31.507812 C 19.902344 31.507812 19.777344 31.457031 19.675781 31.359375 C 19.570312 31.257812 19.519531 31.136719 19.519531 30.996094 C 19.519531 30.855469 19.570312 30.738281 19.675781 30.636719 C 19.777344 30.539062 19.902344 30.488281 20.046875 30.488281 C 20.195312 30.488281 20.320312 30.539062 20.421875 30.636719 C 20.523438 30.738281 20.578125 30.855469 20.578125 30.996094 Z M 20.578125 30.996094 "/><path style=" stroke:none;fill-rule:nonzero;fill:#ffffff;fill-opacity:1;" d="M 39.707031 27.410156 C 39.796875 27.496094 39.839844 27.601562 39.839844 27.722656 C 39.839844 27.84375 39.796875 27.949219 39.707031 28.035156 C 39.617188 28.121094 39.507812 28.164062 39.382812 28.164062 C 39.257812 28.164062 39.148438 28.121094 39.058594 28.035156 C 38.96875 27.949219 38.925781 27.84375 38.925781 27.722656 C 38.925781 27.601562 38.96875 27.496094 39.058594 27.410156 C 39.148438 27.324219 39.257812 27.28125 39.382812 27.28125 C 39.507812 27.28125 39.617188 27.324219 39.707031 27.410156 Z M 39.707031 27.410156 "/><g clip-rule="nonzero" clip-path="url(#15c66de3d1)"><path style=" stroke:none;fill-rule:nonzero;fill:#ffffff;fill-opacity:1;" d="M 20.773438 42.859375 C 20.773438 43.046875 20.707031 43.210938 20.566406 43.34375 C 20.429688 43.476562 20.261719 43.542969 20.066406 43.542969 C 19.871094 43.542969 19.703125 43.476562 19.566406 43.34375 C 19.425781 43.210938 19.359375 43.046875 19.359375 42.859375 C 19.359375 42.671875 19.425781 42.511719 19.566406 42.378906 C 19.703125 42.242188 19.871094 42.175781 20.066406 42.175781 C 20.261719 42.175781 20.429688 42.242188 20.566406 42.378906 C 20.707031 42.511719 20.773438 42.671875 20.773438 42.859375 Z M 20.773438 42.859375 "/></g><path style=" stroke:none;fill-rule:nonzero;fill:#ffffff;fill-opacity:1;" d="M 32.53125 33.851562 C 32.53125 34.007812 32.664062 34.136719 32.828125 34.136719 C 32.988281 34.136719 33.121094 34.007812 33.121094 33.851562 C 33.121094 33.695312 32.988281 33.566406 32.828125 33.566406 C 32.664062 33.558594 32.53125 33.6875 32.53125 33.851562 Z M 32.53125 33.851562 "/><path style=" stroke:none;fill-rule:nonzero;fill:#ffffff;fill-opacity:1;" d="M 31.515625 35.40625 C 31.515625 35.535156 31.46875 35.644531 31.375 35.738281 C 31.28125 35.828125 31.167969 35.875 31.03125 35.875 C 30.898438 35.875 30.785156 35.828125 30.691406 35.738281 C 30.597656 35.644531 30.546875 35.535156 30.546875 35.40625 C 30.546875 35.277344 30.597656 35.167969 30.691406 35.078125 C 30.785156 34.984375 30.898438 34.941406 31.03125 34.941406 C 31.167969 34.941406 31.28125 34.984375 31.375 35.078125 C 31.46875 35.167969 31.515625 35.277344 31.515625 35.40625 Z M 31.515625 35.40625 "/><path style=" stroke:none;fill-rule:nonzero;fill:#ffffff;fill-opacity:1;" d="M 45.046875 27.6875 C 45.046875 27.84375 45.183594 27.972656 45.34375 27.972656 C 45.503906 27.972656 45.640625 27.84375 45.640625 27.6875 C 45.640625 27.53125 45.503906 27.402344 45.34375 27.402344 C 45.183594 27.402344 45.046875 27.53125 45.046875 27.6875 Z M 45.046875 27.6875 "/></g><mask id="aea4218e9e"><g filter="url(#f14e3dbe4b)"><rect x="0" width="187.5" y="0" height="74.999997" style="fill:#000000;fill-opacity:0.47;stroke:none;"/></g></mask></g><g clip-rule="nonzero" clip-path="url(#f6783fa5f7)"><path style=" stroke:none;fill-rule:nonzero;fill:#ffffff;fill-opacity:1;" d="M 122.390625 35.539062 C 122.816406 46.667969 116.015625 57.183594 105.742188 61.554688 C 104.945312 61.890625 104.132812 62.191406 103.304688 62.457031 C 102.476562 62.71875 101.640625 62.945312 100.792969 63.128906 C 99.945312 63.316406 99.089844 63.460938 98.226562 63.566406 C 97.367188 63.675781 96.503906 63.742188 95.632812 63.765625 C 94.765625 63.792969 93.902344 63.777344 93.035156 63.726562 C 92.167969 63.671875 91.304688 63.578125 90.449219 63.445312 C 89.589844 63.308594 88.742188 63.136719 87.898438 62.925781 C 87.058594 62.710938 86.230469 62.460938 85.410156 62.171875 C 84.59375 61.882812 83.789062 61.554688 83 61.191406 C 82.214844 60.828125 81.445312 60.425781 80.691406 59.992188 C 79.941406 59.558594 79.214844 59.089844 78.503906 58.585938 C 77.796875 58.082031 77.117188 57.546875 76.457031 56.984375 C 75.800781 56.417969 75.167969 55.820312 74.566406 55.195312 C 73.964844 54.574219 73.390625 53.921875 72.847656 53.246094 C 72.304688 52.566406 71.796875 51.867188 71.316406 51.140625 C 70.839844 50.417969 70.398438 49.671875 69.988281 48.90625 C 60.160156 30.152344 73.667969 7.644531 95.011719 8.132812 C 94.28125 8.191406 92.695312 8.316406 92.003906 8.414062 C 91.308594 8.511719 90.25 8.746094 89.535156 8.875 C 86.105469 9.714844 82.9375 11.144531 80.039062 13.15625 C 79.03125 13.863281 78.078125 14.632812 77.175781 15.46875 C 76.277344 16.300781 75.433594 17.195312 74.65625 18.144531 C 73.875 19.09375 73.164062 20.089844 72.519531 21.136719 C 71.875 22.183594 71.304688 23.269531 70.808594 24.390625 C 70.3125 25.515625 69.894531 26.667969 69.554688 27.847656 C 69.214844 29.027344 68.957031 30.226562 68.777344 31.441406 C 68.601562 32.65625 68.507812 33.878906 68.5 35.109375 C 68.488281 36.335938 68.558594 37.5625 68.714844 38.78125 C 70.085938 49.949219 78.804688 59.265625 89.820312 61.503906 C 91.105469 61.765625 92.402344 61.929688 93.710938 62 C 95.019531 62.070312 96.328125 62.046875 97.632812 61.929688 C 98.9375 61.808594 100.226562 61.597656 101.503906 61.292969 C 102.777344 60.988281 104.023438 60.589844 105.238281 60.105469 C 106.457031 59.617188 107.632812 59.046875 108.765625 58.390625 C 109.898438 57.734375 110.980469 57 112.007812 56.183594 C 113.035156 55.371094 114 54.488281 114.898438 53.535156 C 115.796875 52.582031 116.625 51.570312 117.375 50.496094 C 119.382812 47.597656 120.808594 44.4375 121.648438 41.011719 C 121.792969 40.304688 121.957031 39.257812 122.101562 38.546875 C 122.25 37.832031 122.308594 36.257812 122.390625 35.539062 Z M 122.390625 35.539062 "/></g><g clip-rule="nonzero" clip-path="url(#7f08638bc2)"><path style=" stroke:none;fill-rule:nonzero;fill:#ffffff;fill-opacity:1;" d="M 82.628906 47.324219 C 82.628906 47.484375 82.640625 47.648438 82.652344 47.910156 C 84.179688 46.75 85.636719 45.644531 87.21875 44.445312 L 87.21875 50.152344 C 89.46875 48.441406 91.628906 46.792969 93.789062 45.140625 C 93.890625 45.066406 94.011719 44.933594 94.015625 44.828125 C 94.03125 43.949219 94.023438 43.074219 94.023438 42.074219 C 92.460938 43.257812 91 44.371094 89.464844 45.535156 C 89.464844 44.679688 89.484375 43.933594 89.457031 43.1875 C 89.445312 42.84375 89.5625 42.628906 89.835938 42.425781 C 90.371094 42.027344 90.898438 41.625 95.1875 38.660156 L 95.1875 38.6875 C 99.328125 41.597656 99.871094 42.015625 100.414062 42.433594 C 100.566406 42.550781 100.773438 42.722656 100.777344 42.875 C 100.8125 43.730469 100.796875 44.585938 100.796875 45.535156 C 99.246094 44.359375 97.785156 43.25 96.234375 42.074219 C 96.234375 42.988281 96.25 43.75 96.226562 44.515625 C 96.21875 44.839844 96.324219 45.046875 96.582031 45.238281 C 97.875 46.207031 99.152344 47.195312 100.4375 48.175781 C 101.285156 48.816406 102.136719 49.457031 103.085938 50.175781 L 103.085938 44.472656 C 104.640625 45.652344 106.097656 46.761719 107.59375 47.898438 C 107.621094 47.753906 107.632812 47.71875 107.632812 47.683594 C 107.636719 41.433594 107.640625 35.179688 107.625 28.925781 L 105.386719 27.273438 L 105.386719 43.316406 C 104.675781 42.777344 104.101562 42.304688 103.488281 41.886719 C 103.167969 41.664062 103.070312 41.421875 103.070312 41.039062 C 103.082031 35.882812 103.078125 30.726562 103.085938 25.570312 L 100.792969 23.875 L 100.792969 25.007812 C 100.804688 25.105469 100.808594 25.203125 100.808594 25.304688 C 100.792969 29.945312 100.800781 34.59375 100.800781 39.234375 C 100.800781 39.386719 100.800781 39.539062 100.800781 39.816406 C 100.070312 39.261719 99.410156 38.785156 95.191406 35.777344 L 95.191406 35.765625 C 91.382812 38.375 91.328125 38.417969 91.261719 38.460938 C 90.671875 38.855469 90.128906 39.316406 89.503906 39.796875 C 89.488281 39.585938 89.46875 39.441406 89.46875 39.300781 C 89.46875 34.605469 89.472656 29.910156 89.464844 25.214844 C 89.464844 25.066406 89.476562 24.925781 89.5 24.789062 L 89.5 23.679688 L 87.175781 25.398438 C 87.191406 30.488281 87.175781 35.582031 87.199219 40.671875 C 87.203125 41.316406 87.066406 41.757812 86.5 42.101562 C 85.960938 42.425781 85.480469 42.851562 84.859375 43.320312 L 84.859375 27.109375 L 82.621094 28.765625 C 82.632812 34.953125 82.625 41.136719 82.628906 47.324219 Z M 82.628906 47.324219 "/></g></g></svg>